<svg width="112" height="124" viewBox="0 0 112 124" fill="none" xmlns="http://www.w3.org/2000/svg">
<path d="M56.0002 114.416C86.9279 114.416 112 89.3444 112 58.4167C112 27.4889 86.9279 2.41699 56.0002 2.41699C25.0724 2.41699 0.000488281 27.4889 0.000488281 58.4167C0.000488281 89.3444 25.0724 114.416 56.0002 114.416Z" fill="#EBEBEB"/>
<path d="M105.046 68.4057C104.793 68.964 104.331 69.4002 103.758 69.6195C103.186 69.8387 102.55 69.8234 101.989 69.5769C101.428 69.3303 100.987 68.8724 100.762 68.3026C100.536 67.7327 100.544 67.0969 100.785 66.5331C101.97 63.8333 101.855 60.6256 100.586 57.947C100.222 57.1756 99.7615 56.4538 99.2148 55.7994C98.1146 54.4833 95.7173 52.4097 92.0505 53.2963C86.107 54.7309 86.0457 59.8618 88.8492 73.5895C89.8035 78.2635 89.175 81.9049 86.983 84.4164C85.0914 86.5809 82.5207 87.277 80.8195 87.495C79.8102 87.6219 79.1078 87.5796 79.0337 87.5754C78.4282 87.5228 77.8672 87.2353 77.4708 86.7746C77.0744 86.3138 76.874 85.7162 76.9124 85.1096C76.9508 84.5029 77.225 83.9354 77.6764 83.5283C78.1277 83.1212 78.7205 82.9069 79.3278 82.9311C79.4103 82.9353 82.0361 83.0284 83.4961 81.3315C84.1266 80.5951 84.444 79.6261 84.5625 78.5872C84.719 77.2288 84.5392 75.7498 84.2874 74.5205C83.039 68.4099 82.0467 62.9975 82.5228 58.6431C83.1068 53.3026 85.9462 49.9829 90.9587 48.7705C95.4232 47.6914 99.7332 49.1661 102.784 52.8118C103.072 53.1568 103.344 53.5137 103.599 53.8824C106.487 58.0845 107.088 63.7571 105.046 68.4057Z" fill="white"/>
<path d="M105.046 68.4056C104.793 68.964 104.33 69.4001 103.758 69.6194C103.186 69.8387 102.55 69.8234 101.989 69.5768C101.428 69.3303 100.987 68.8724 100.761 68.3025C100.536 67.7326 100.544 67.0968 100.784 66.5331C101.969 63.8332 101.855 60.6256 100.585 57.9469C102.039 56.9271 103.287 55.5814 103.598 53.8823C106.487 58.0844 107.087 63.7571 105.046 68.4056Z" fill="#FFBC1F"/>
<g opacity="0.3">
<path d="M101.049 68.8582C100.802 68.5289 100.648 68.1399 100.602 67.7313C100.555 67.3227 100.618 66.9091 100.784 66.5329C101.969 63.833 101.855 60.6254 100.585 57.9467C100.222 57.1753 99.761 56.4536 99.2143 55.7991C98.1141 54.483 95.7168 52.4095 92.05 53.296C86.1065 54.7306 86.0452 59.8616 88.8487 73.5893C89.803 78.2632 89.1745 81.9046 86.9825 84.4161C85.0909 86.5807 82.5202 87.2768 80.819 87.4947C79.8097 87.6217 79.1073 87.5793 79.0332 87.5751C78.4277 87.5225 77.8667 87.2351 77.4703 86.7743C77.0739 86.3135 76.8735 85.7159 76.9119 85.1093C76.9503 84.5027 77.2245 83.9352 77.6759 83.5281C78.1273 83.121 78.72 82.9066 79.3273 82.9308C79.4099 82.935 82.0356 83.0281 83.4956 81.3312C84.1261 80.5949 84.4435 79.6258 84.562 78.5869C84.7819 78.6171 84.9977 78.6716 85.2056 78.7494C86.2056 79.1303 87.2758 78.3855 87.2368 77.3166C87.2136 76.6594 87.1239 75.8431 86.9343 74.8292C86.0287 69.9775 80.4153 52.7777 92.6471 51.3431C103.353 50.0884 107.087 64.4255 101.049 68.8582Z" fill="#363636"/>
</g>
<path d="M79.4196 88.4326C79.1657 88.4326 79.0096 88.4224 78.974 88.4199C78.1408 88.3576 77.3657 87.9693 76.817 87.3392C76.2682 86.7091 75.9901 85.888 76.043 85.0541C76.0959 84.2202 76.4754 83.4408 77.0993 82.885C77.7233 82.3292 78.5412 82.0419 79.3756 82.0854C79.3866 82.0854 81.6637 82.1624 82.8528 80.7791C83.816 79.6589 84.0305 77.4965 83.4575 74.6909C82.1952 68.5084 81.1902 63.027 81.6802 58.5507C82.3078 52.8188 85.3618 49.2515 90.7577 47.9481C95.5463 46.7911 100.166 48.3658 103.433 52.2687C107.209 56.7801 108.168 63.4015 105.82 68.7453C105.655 69.1298 105.415 69.4776 105.114 69.7688C104.813 70.06 104.458 70.2889 104.068 70.4421C103.678 70.5954 103.262 70.6701 102.844 70.6619C102.425 70.6536 102.012 70.5627 101.629 70.3942C101.246 70.2258 100.9 69.9832 100.611 69.6804C100.321 69.3776 100.095 69.0206 99.9446 68.63C99.794 68.2393 99.7223 67.8227 99.7334 67.4042C99.7446 66.9857 99.8384 66.5736 100.009 66.1915C101.41 63.0054 100.83 59.0475 98.5656 56.3426C97.5923 55.178 95.4735 53.3381 92.2485 54.1184C87.3181 55.3092 86.7896 59.2781 89.6769 73.421C90.6866 78.3657 89.9943 82.2521 87.619 84.9736C85.5793 87.3065 82.8532 88.0881 80.9244 88.3348C80.4253 88.3988 79.9228 88.4314 79.4196 88.4326ZM79.1966 83.773C78.8129 83.7727 78.444 83.9213 78.1676 84.1875C77.8913 84.4538 77.7291 84.8169 77.7151 85.2003C77.7012 85.5838 77.8366 85.9578 78.0929 86.2434C78.3492 86.5289 78.7064 86.7039 79.0891 86.7314C79.0976 86.7314 79.7565 86.7737 80.7111 86.6544C82.3484 86.4462 84.6551 85.792 86.344 83.8585C88.3536 81.5573 88.9169 78.1596 88.0185 73.7595C86.6846 67.227 85.8874 62.1705 86.3296 58.725C86.7803 55.2127 88.4831 53.2864 91.8511 52.4731C95.9652 51.4791 98.6367 53.7904 99.8635 55.2563C102.529 58.4428 103.212 63.1112 101.559 66.8724C101.481 67.0504 101.438 67.2422 101.434 67.4366C101.43 67.6311 101.464 67.8245 101.535 68.0057C101.605 68.187 101.711 68.3526 101.845 68.4931C101.98 68.6336 102.141 68.7462 102.319 68.8245C102.678 68.9826 103.086 68.9914 103.452 68.849C103.818 68.7065 104.113 68.4245 104.271 68.0649C106.366 63.2966 105.508 57.3857 102.135 53.3558C99.2969 49.9649 95.2949 48.5943 91.1559 49.5942C86.4616 50.7283 83.9129 53.7185 83.3636 58.7348C82.8981 62.9665 83.8828 68.312 85.1159 74.3519C85.5971 76.7077 85.818 79.9268 84.1363 81.8844C82.4038 83.8991 79.4128 83.784 79.2863 83.7773C79.2563 83.7739 79.2262 83.773 79.1966 83.773Z" fill="#363636"/>
<path d="M84.9418 84.4478C84.4953 87.5687 82.0875 90.5838 82.0875 90.5838H30.6953C28.1901 88.7727 25.905 85.8739 25.7019 83.0768V83.0746C25.6067 81.7755 25.9621 80.4975 26.9545 79.3613C30.086 75.7792 34.6181 79.6787 34.6181 79.6787C28.9476 68.8434 39.4465 55.3759 39.4465 55.3759C39.4489 55.3733 39.451 55.3704 39.4529 55.3674C45.8851 47.9852 67.6552 45.078 70.2746 48.3385C70.4157 48.509 70.5033 48.7173 70.5264 48.9373C70.7676 51.396 72.1239 54.811 73.1987 57.204C73.9054 58.7761 74.828 60.2339 75.9028 61.5775C78.3995 64.7005 79.7389 68.0668 80.4456 70.974C80.9177 72.8995 81.1732 74.8718 81.2073 76.854C81.2263 77.9585 81.1586 78.6123 81.1586 78.6123C84.5567 79.8712 85.2634 82.186 84.9418 84.4478Z" fill="white"/>
<path d="M32.6659 88.052C33.8179 88.052 34.7517 87.1182 34.7517 85.9662C34.7517 84.8142 33.8179 83.8804 32.6659 83.8804C31.5139 83.8804 30.5801 84.8142 30.5801 85.9662C30.5801 87.1182 31.5139 88.052 32.6659 88.052Z" fill="#FF5253"/>
<path d="M78.8257 88.6809C79.89 88.24 80.3954 87.0199 79.9545 85.9556C79.5137 84.8913 78.2936 84.386 77.2293 84.8268C76.165 85.2676 75.6596 86.4878 76.1005 87.552C76.5413 88.6163 77.7614 89.1217 78.8257 88.6809Z" fill="#FF5253"/>
<path d="M28.8958 85.6661C29.4749 85.6661 29.9444 85.1966 29.9444 84.6175C29.9444 84.0383 29.4749 83.5688 28.8958 83.5688C28.3167 83.5688 27.8472 84.0383 27.8472 84.6175C27.8472 85.1966 28.3167 85.6661 28.8958 85.6661Z" fill="#FF5253"/>
<path d="M30.1546 83.2286C30.7337 83.2286 31.2032 82.7591 31.2032 82.18C31.2032 81.6008 30.7337 81.1313 30.1546 81.1313C29.5754 81.1313 29.106 81.6008 29.106 82.18C29.106 82.7591 29.5754 83.2286 30.1546 83.2286Z" fill="#FF5253"/>
<path d="M32.9949 83.15C33.574 83.15 34.0435 82.6805 34.0435 82.1014C34.0435 81.5222 33.574 81.0527 32.9949 81.0527C32.4158 81.0527 31.9463 81.5222 31.9463 82.1014C31.9463 82.6805 32.4158 83.15 32.9949 83.15Z" fill="#FF5253"/>
<path d="M77.9019 83.4804C78.5045 83.2307 78.7907 82.5398 78.5411 81.9372C78.2914 81.3346 77.6005 81.0484 76.9979 81.298C76.3953 81.5476 76.1091 82.2385 76.3587 82.8412C76.6083 83.4438 77.2992 83.73 77.9019 83.4804Z" fill="#FF5253"/>
<path d="M82.9023 85.7603C83.0522 85.1255 82.659 84.4893 82.0241 84.3395C81.3893 84.1897 80.7532 84.5829 80.6033 85.2177C80.4535 85.8525 80.8467 86.4887 81.4815 86.6385C82.1164 86.7883 82.7525 86.3952 82.9023 85.7603Z" fill="#FF5253"/>
<path d="M81.7905 82.6548C81.9403 82.02 81.5472 81.3839 80.9123 81.234C80.2775 81.0842 79.6414 81.4774 79.4915 82.1122C79.3417 82.7471 79.7349 83.3832 80.3697 83.533C81.0045 83.6829 81.6407 83.2897 81.7905 82.6548Z" fill="#FF5253"/>
<path d="M80.4429 70.9763C79.4411 71.2278 78.412 71.3543 77.3791 71.3529C70.4179 71.3529 64.7749 65.7099 64.7749 58.7487C64.7731 56.6972 65.2731 54.6764 66.2312 52.8623C67.1893 51.0482 68.5765 49.496 70.2719 48.3408C70.413 48.5113 70.5006 48.7196 70.5237 48.9396C70.7649 51.3982 72.1212 54.8132 73.196 57.2063C73.9027 58.7784 74.8252 60.2362 75.9001 61.5798C78.3968 64.7028 79.7362 68.0691 80.4429 70.9763Z" fill="#FFBC1F"/>
<g opacity="0.3">
<path d="M81.1564 78.6142C76.8718 72.8337 70.5242 75.4193 70.5242 75.4193C71.2347 73.8629 72.7878 72.9996 74.1517 72.5265C75.8152 71.9489 76.7372 70.136 76.13 68.4831C75.2739 66.1522 73.5571 64.2852 72.2478 62.6327C71.2957 61.4313 70.4574 59.9244 69.8565 58.7171C69.5799 58.1665 69.1035 57.7422 68.5246 57.531C67.9458 57.3199 67.3081 57.3377 66.7419 57.5809C47.7914 65.6863 39.4443 55.3778 39.4443 55.3778C39.4467 55.3752 39.4488 55.3724 39.4507 55.3694C45.8829 47.9871 67.653 45.08 70.2724 48.3405C70.4135 48.5109 70.5011 48.7193 70.5242 48.9393C70.7654 51.3979 72.1217 54.8129 73.1966 57.206C73.9033 58.778 74.8258 60.2359 75.9006 61.5794C78.3974 64.7025 79.7367 68.0688 80.4434 70.976C81.4992 75.3008 81.1564 78.6142 81.1564 78.6142Z" fill="#363636"/>
</g>
<g opacity="0.3">
<path d="M84.9401 84.4479C84.4936 87.5688 82.0858 90.5839 82.0858 90.5839H30.6936C28.1884 88.7727 25.9033 85.874 25.7002 83.0768L28.7073 85.9045C30.172 87.2821 32.1071 88.0491 34.1179 88.0491H35.1818C36.5939 88.049 37.9685 87.5942 39.1021 86.7521V86.7521C39.1021 86.7521 39.8744 87.6132 41.0973 86.7521C41.0973 86.7521 42.3668 87.4101 44.0891 85.5164C44.0891 85.5164 46.5986 84.7462 45.6845 82.0993C44.7705 79.4523 42.4578 71.3359 43.9876 68.0034C43.9876 68.0034 45.5174 81.145 49.1905 81.2064C49.1905 81.2064 52.999 82.2178 59.1181 68.0098C59.0398 68.2615 56.4817 76.3632 53.236 81.674C53.236 81.674 52.5907 84.7674 55.3794 84.395C55.3794 84.395 55.8555 86.9023 59.5963 86.0898C59.5963 86.0898 64.084 89.4731 66.3967 76.0966C66.3967 76.0966 67.3467 72.8995 66.805 68.799C66.805 68.799 68.306 75.9849 66.7784 83.3299C66.3493 85.3941 67.794 87.3843 69.8895 87.62C71.5856 87.8108 73.9842 87.9729 77.3725 88.0368C79.7423 88.0817 82.0579 87.2366 83.7929 85.6209C84.1947 85.2494 84.5776 84.8579 84.9401 84.4479V84.4479Z" fill="#363636"/>
</g>
<g opacity="0.3">
<path d="M81.1553 78.6149C81.1553 78.6149 73.9699 76.8926 72.5649 86.3907C72.5649 86.3907 71.1621 76.4631 81.204 76.8566C81.2231 77.9611 81.1553 78.6149 81.1553 78.6149Z" fill="#363636"/>
</g>
<g opacity="0.3">
<path d="M53.6353 81.0056C53.6353 81.0056 54.2755 82.5429 55.4486 82.4071C55.6832 82.3824 55.9147 82.3333 56.1392 82.2607C56.2128 82.2372 56.2909 82.2307 56.3674 82.2417C56.444 82.2528 56.517 82.281 56.5811 82.3244C56.6451 82.3677 56.6985 82.425 56.7372 82.492C56.7759 82.559 56.7988 82.6338 56.8044 82.711C56.8552 83.3123 57.0613 84.0101 57.7256 84.1413C58.6329 84.3203 59.6363 83.7854 60.2736 83.2678C60.5617 83.0338 60.9976 83.1604 61.0975 83.5179L61.1026 83.5366C61.1162 83.5849 61.1433 83.6283 61.1807 83.6618C61.2181 83.6953 61.2643 83.7174 61.3138 83.7256C61.3634 83.7338 61.4142 83.7278 61.4604 83.7082C61.5066 83.6885 61.5463 83.6562 61.5748 83.6148C62.6421 82.0694 65.4921 77.2956 66.8048 68.8013C66.8048 68.8013 67.922 78.5588 62.3535 85.9664C62.3535 85.9664 61.0243 87.1983 59.5961 86.0934C59.5961 86.0934 56.6521 87.0324 55.3792 84.3986C55.3804 84.3994 52.3657 84.2568 53.6353 81.0056Z" fill="#363636"/>
</g>
<g opacity="0.3">
<path d="M36.8481 84.5494C36.8481 84.5494 39.074 85.9945 39.6411 84.8295C39.7621 84.5811 40.0918 84.5142 40.3156 84.6759C40.7011 84.9539 41.2466 85.1773 41.7967 84.8388C42.3088 84.5227 42.4738 84.006 42.5115 83.5693C42.5445 83.1821 42.7679 82.822 43.1318 82.6857C43.5338 82.5355 43.9147 82.1597 43.6219 81.2342C43.0891 79.5508 41.7108 70.93 43.9896 68.0059C43.9896 68.0059 42.6393 70.9507 44.227 76.8349C44.227 76.8349 47.7173 84.8274 44.0912 85.5188C44.0912 85.5188 43.208 87.7972 40.7257 86.7088C40.724 86.7088 38.5146 88.2733 36.8481 84.5494Z" fill="#363636"/>
</g>
<path d="M82.086 91.4315H30.6947C30.5169 91.4314 30.3437 91.3753 30.1996 91.2712C27.8721 89.589 25.2485 86.6417 24.8816 83.4145C24.6857 81.6994 25.182 80.1062 26.317 78.807C28.2966 76.5397 30.8513 76.7521 32.8457 77.6048C31.5339 73.4154 31.96 68.4753 34.1216 63.1476C36.0588 58.3725 38.6673 54.9989 38.7764 54.8576L38.8052 54.8229C41.4691 51.7579 47.0148 49.0783 54.0259 47.4724C60.1111 46.0759 66.1785 45.7729 69.123 46.7107C70.858 47.2646 71.3015 48.1829 71.3658 48.8557C71.5939 51.19 72.907 54.4958 73.9679 56.8584C74.6132 58.2946 75.4854 59.7046 76.5602 61.0478C82.042 67.9032 82.1427 75.7708 82.0407 78.0572C83.9649 78.9065 85.1756 80.187 85.6445 81.8708C86.787 85.9807 82.912 90.9022 82.7466 91.1095C82.6678 91.2094 82.5674 91.2902 82.4531 91.346C82.3387 91.4017 82.2132 91.431 82.086 91.4315V91.4315ZM30.9715 89.7388H81.6616C82.4347 88.6648 84.7859 85.0895 84.014 82.3253C83.6471 81.0135 82.6175 80.0575 80.863 79.4092C80.6865 79.3444 80.5366 79.2226 80.4369 79.063C80.3373 78.9035 80.2937 78.7153 80.3129 78.5282C80.3218 78.4397 81.1483 69.5011 75.2374 62.1091C74.0737 60.6534 73.1266 59.1211 72.4233 57.5545C71.3099 55.0768 69.9308 51.5878 69.6803 49.0237C69.6638 48.8545 69.3726 48.5705 68.6059 48.3259C63.3585 46.6514 45.6585 49.5498 40.0967 55.9151C39.6888 56.4504 30.104 69.234 35.3636 79.2895C35.4551 79.4639 35.4829 79.6648 35.4422 79.8576C35.4015 80.0504 35.2948 80.2229 35.1405 80.3454C34.9862 80.468 34.7941 80.5328 34.5971 80.5289C34.4001 80.5249 34.2107 80.4523 34.0615 80.3237C33.9032 80.1883 30.1222 77.02 27.5869 79.9208C26.7622 80.8653 26.416 81.9766 26.5586 83.2216C26.8066 85.3675 28.5276 87.9014 30.9715 89.7388V89.7388Z" fill="#363636"/>
<path d="M35.4139 79.4015C35.6979 80.1907 36.0199 80.9994 36.3622 81.7776C36.6972 82.5523 37.0726 83.3089 37.487 84.0441C37.5911 84.2227 37.6935 84.403 37.8057 84.5684L37.9703 84.8223L38.1434 85.0568C38.2564 85.2222 38.3795 85.3467 38.4971 85.4838C38.523 85.5163 38.5529 85.5454 38.586 85.5705L38.6732 85.6463L38.7578 85.7245C38.7887 85.7508 38.8315 85.7757 38.8678 85.8016C39.1641 86.0131 39.4789 86.1697 39.7311 86.2226C39.8303 86.2462 39.9332 86.2497 40.0337 86.2328C40.0656 86.2268 40.0966 86.2162 40.1255 86.2015C40.1353 86.1966 40.1446 86.191 40.1534 86.1845C40.1568 86.182 40.1606 86.1803 40.1581 86.1811C40.1556 86.182 40.1606 86.1811 40.1543 86.1858C40.143 86.197 40.1325 86.209 40.123 86.2218L41.2469 86.0478C41.2325 86.0381 41.241 86.0436 41.2495 86.0478C41.2574 86.0529 41.2658 86.0572 41.2744 86.061C41.2947 86.0719 41.3157 86.0816 41.3371 86.0902C41.3794 86.1109 41.4289 86.1257 41.4759 86.1426C41.5687 86.1709 41.6643 86.1889 41.7611 86.1964C41.9439 86.2088 42.127 86.1767 42.2947 86.1029C42.4847 86.0062 42.6565 85.8773 42.8025 85.722C42.8833 85.6336 42.9587 85.5299 43.0391 85.4351L43.254 85.0995L44.185 84.6971C44.16 84.6907 44.185 84.6971 44.1892 84.6971L44.2244 84.7C44.2489 84.7 44.276 84.7026 44.3018 84.7022C44.3522 84.702 44.4025 84.697 44.452 84.6873C44.5276 84.674 44.5997 84.6452 44.6636 84.6027C44.7216 84.5629 44.7694 84.51 44.8033 84.4482C44.8567 84.3544 44.8969 84.2536 44.9226 84.1487C44.9844 83.8947 44.9958 83.5706 44.9776 83.2329C44.9554 82.8785 44.9067 82.5263 44.832 82.1792C44.7995 82.0006 44.7504 81.8187 44.7123 81.638L44.5684 81.0878C44.466 80.6985 44.3568 80.3113 44.2603 79.9203C44.072 79.137 43.896 78.3525 43.7466 77.562C43.4559 75.9801 43.2206 74.3856 43.1542 72.7708C43.136 72.368 43.1393 71.9613 43.1406 71.558C43.1622 71.1518 43.1724 70.7476 43.2253 70.3422C43.2434 70.1408 43.276 69.9385 43.3099 69.7375C43.326 69.6368 43.3435 69.5365 43.3624 69.4366L43.4368 69.1404C43.4631 69.0414 43.4825 68.9424 43.5147 68.8442L43.6201 68.5548C43.6768 68.3609 43.7982 68.1845 43.8858 68.0093C43.7284 68.7964 43.7885 69.575 43.8554 70.3503C43.9222 71.1255 44.0466 71.897 44.1816 72.6659C44.4436 74.2033 44.7694 75.7334 45.1723 77.2433C45.3623 78.0008 45.5798 78.7515 45.807 79.498C45.9145 79.8729 46.0377 80.2428 46.1515 80.6152C46.2721 81.0019 46.3995 81.4078 46.49 81.8225C46.5908 82.2482 46.6597 82.6809 46.6961 83.117C46.7419 83.6011 46.7114 84.0895 46.606 84.5642C46.5383 84.8448 46.4284 85.1134 46.2801 85.361C46.1108 85.6371 45.8819 85.872 45.6102 86.0483C45.3385 86.2247 45.0309 86.3382 44.7097 86.3805C44.5633 86.4016 44.4154 86.4097 44.2675 86.4046C44.1947 86.4046 44.1224 86.397 44.0487 86.3885L43.9362 86.3733C43.8939 86.3656 43.8681 86.3623 43.7944 86.3453L44.7254 85.9433L44.4169 86.424C44.2929 86.5789 44.1749 86.7359 44.0361 86.8849C43.75 87.1811 43.4115 87.4562 42.9938 87.6466C42.569 87.8366 42.1038 87.9188 41.6396 87.8861C41.4138 87.8692 41.1906 87.8266 40.9744 87.7591C40.8675 87.7253 40.7624 87.6859 40.6596 87.6411C40.6079 87.6204 40.555 87.5929 40.503 87.567C40.4776 87.5548 40.4497 87.5395 40.4209 87.5247C40.3921 87.5099 40.3671 87.4951 40.3189 87.4638L41.4424 87.2899C41.415 87.3233 41.3858 87.3553 41.3548 87.3855C41.3299 87.4113 41.3125 87.4278 41.2909 87.4456C41.2516 87.481 41.2105 87.5143 41.1678 87.5455C41.089 87.6041 41.0057 87.6563 40.9185 87.7016C40.7534 87.7883 40.5771 87.8518 40.3947 87.8903C40.0649 87.9571 39.7248 87.9548 39.396 87.8836C38.7904 87.7515 38.3177 87.4811 37.903 87.1929C37.8505 87.1553 37.7989 87.124 37.7456 87.0808L37.5844 86.9424C37.4828 86.8493 37.3592 86.7554 37.2801 86.6593C37.1108 86.4681 36.9306 86.2747 36.7956 86.0787L36.5793 85.7851L36.3868 85.4888C36.2539 85.2916 36.1401 85.0919 36.0241 84.8922C35.5785 84.1038 35.1751 83.2922 34.8155 82.461C34.4542 81.6375 34.1279 80.8208 33.8198 79.9643L35.4139 79.4015Z" fill="#363636"/>
<path d="M40.4376 86.8899C40.308 86.6605 40.194 86.4226 40.0966 86.1777C39.9992 85.9336 39.9116 85.6843 39.8367 85.4292C39.7574 85.1715 39.6991 84.9079 39.6624 84.6408C39.629 84.3733 39.6201 84.0771 39.7089 83.8071C39.8596 84.042 40.0246 84.2303 40.1812 84.43C40.3378 84.6298 40.488 84.8274 40.642 85.025L41.0961 85.6213C41.2421 85.8206 41.3923 86.0254 41.5193 86.2256L40.4376 86.8899Z" fill="#363636"/>
<path d="M43.4122 85.7845C43.2535 85.2556 43.1088 84.7236 42.981 84.1832C42.9145 83.9141 42.851 83.6441 42.7969 83.3703C42.7392 83.0951 42.6968 82.817 42.6699 82.5371C43.0165 82.9823 43.3368 83.43 43.6466 83.8858C43.9627 84.3369 44.2682 84.7943 44.5649 85.2518L43.4122 85.7845Z" fill="#363636"/>
<path d="M81.0088 79.4482C80.9872 79.4444 80.9187 79.4343 80.8679 79.4292C80.8171 79.4241 80.7553 79.4173 80.6986 79.4131C80.5827 79.4051 80.4638 79.3979 80.3449 79.3936C80.105 79.386 79.8648 79.3912 79.6255 79.4093C79.1445 79.4456 78.6684 79.5295 78.204 79.6598C77.266 79.9247 76.3995 80.3971 75.6688 81.0423C75.2985 81.3791 74.9597 81.7489 74.6566 82.1472C74.5127 82.3558 74.3565 82.5585 74.2296 82.782C74.1632 82.8916 74.0895 82.9978 74.0265 83.1108L73.8407 83.4523C73.3422 84.3676 72.952 85.3629 72.5665 86.3899C72.5433 85.2791 72.7152 84.1728 73.0743 83.1214C73.4418 82.0297 74.0252 81.0231 74.7899 80.1617C75.5943 79.2785 76.6009 78.6034 77.7233 78.1944C78.2847 77.9886 78.8683 77.8494 79.4621 77.7797C79.7595 77.7438 80.0585 77.7239 80.358 77.72C80.5086 77.7179 80.6597 77.72 80.8129 77.7301C80.8891 77.7344 80.9665 77.7407 81.0448 77.7483C81.1231 77.756 81.1933 77.7632 81.305 77.7809L81.0088 79.4482Z" fill="#363636"/>
<path d="M79.661 78.9536C79.628 78.896 79.5632 78.7902 79.5078 78.7069C79.4524 78.6235 79.3914 78.5283 79.3292 78.4398C79.2057 78.2629 79.0753 78.0878 78.9399 77.9172C78.6685 77.5765 78.3738 77.255 78.058 76.9549C77.4339 76.3538 76.7058 75.8709 75.9092 75.5297C75.1089 75.1979 74.2317 75.0409 73.321 75.0371C72.4104 75.0333 71.473 75.1916 70.5234 75.418C71.3355 74.8373 72.2568 74.4271 73.2317 74.2123C74.2533 73.9937 75.3123 74.0219 76.3209 74.2944C77.342 74.5691 78.2958 75.0854 79.1096 75.7472C79.5158 76.0787 79.8919 76.4455 80.2335 76.8432C80.4028 77.0421 80.5674 77.2461 80.7185 77.4619C80.7947 77.5694 80.87 77.6777 80.9407 77.7915C81.0113 77.9054 81.0757 78.0091 81.1578 78.1618L79.661 78.9536Z" fill="#363636"/>
<path d="M59.1215 68.0063C58.9705 69.1988 58.6814 70.3456 58.345 71.4764C58.0086 72.6071 57.5901 73.7052 57.1864 74.8122C56.7827 75.9192 56.3438 77.0127 55.8843 78.1054C55.7725 78.3796 55.6532 78.6508 55.5296 78.9212C55.4061 79.1916 55.2906 79.4637 55.1598 79.7329L54.7734 80.5403L54.3587 81.3443L54.401 81.2597C54.3803 81.313 54.3456 81.4116 54.3202 81.492C54.2948 81.5724 54.2686 81.6613 54.2457 81.7497C54.2013 81.9189 54.1668 82.0906 54.1425 82.2639C54.0917 82.5982 54.0964 82.9211 54.1624 83.1305C54.2364 83.3421 54.2957 83.4119 54.4688 83.5033C54.6533 83.5825 54.9571 83.6366 55.2973 83.6193L56.1771 84.2875C56.1729 84.268 56.1771 84.2849 56.1805 84.2951C56.1839 84.3076 56.1881 84.3199 56.1932 84.3319C56.2028 84.3608 56.2142 84.3891 56.2275 84.4165C56.2534 84.4764 56.2829 84.5346 56.3159 84.5909C56.3501 84.6469 56.388 84.7006 56.4293 84.7517L56.4902 84.8287L56.5601 84.896C56.7554 85.0808 56.9938 85.2138 57.2536 85.2828C57.5236 85.3733 57.8546 85.3708 58.1821 85.3674C58.3514 85.3454 58.5236 85.3289 58.6958 85.3035L59.2214 85.1871L59.8985 85.2917C59.8887 85.2857 59.9082 85.2963 59.9209 85.3027C59.9336 85.309 59.9501 85.3175 59.967 85.3251C59.9988 85.3412 60.0335 85.356 60.0703 85.3704C60.1423 85.4 60.2161 85.4251 60.2912 85.4457C60.4371 85.486 60.5869 85.5103 60.738 85.5181C61.0221 85.535 61.3051 85.4698 61.5531 85.3302C61.807 85.1876 62.0482 84.9637 62.2687 84.692C62.3228 84.623 62.3698 84.5422 62.4227 84.469C62.4743 84.389 62.5272 84.3294 62.5793 84.2342C62.6821 84.0526 62.7909 83.8762 62.8903 83.6904C63.2961 82.9507 63.6613 82.172 64.0071 81.3875L64.261 80.795L64.4971 80.1945C64.6638 79.7976 64.8005 79.3905 64.9516 78.9856C65.5186 77.3597 65.9778 75.6916 66.2634 73.9921C66.296 73.7805 66.3379 73.5689 66.3692 73.3544L66.4538 72.7146C66.5258 72.2876 66.5537 71.8589 66.6104 71.4277L66.6498 71.104L66.6697 70.7794L66.7259 70.126C66.7632 69.6885 66.7611 69.25 66.8106 68.7977C66.9587 69.2224 67.0821 69.6553 67.1804 70.0943C67.2524 70.5352 67.3518 70.9829 67.3742 71.4311C67.4094 71.8801 67.4458 72.3329 67.428 72.7827L67.4123 73.4598C67.4022 73.6849 67.3772 73.9083 67.3573 74.1326C67.1881 75.9265 66.8468 77.7 66.3383 79.4286C66.0844 80.2915 65.8077 81.1497 65.4734 81.988C65.139 82.8263 64.7963 83.6616 64.3693 84.4754C64.2656 84.6798 64.1497 84.882 64.0401 85.086C63.9889 85.185 63.9063 85.3006 63.8399 85.4068C63.7735 85.513 63.7028 85.6238 63.622 85.7284C63.2953 86.1448 62.8954 86.5438 62.3804 86.8354C61.8552 87.1298 61.2566 87.2675 60.6555 87.2323C60.3667 87.2173 60.0809 87.1666 59.8045 87.0813C59.6686 87.0396 59.535 86.9903 59.4046 86.9336C59.3395 86.9061 59.2739 86.8756 59.2083 86.8413C59.1753 86.8248 59.1431 86.8087 59.1076 86.788C59.072 86.7673 59.0428 86.7525 58.9865 86.7169L59.6636 86.8214L58.9937 86.9691C58.7635 87.0051 58.5282 87.0296 58.293 87.0538C57.8088 87.0643 57.3099 87.0648 56.7962 86.9073C56.2654 86.7614 55.7795 86.485 55.3828 86.1033L55.2355 85.9552L55.1039 85.794C55.0177 85.6864 54.9386 85.5733 54.867 85.4554C54.7965 85.3358 54.7333 85.212 54.6778 85.0847C54.6484 85.0197 54.6222 84.9531 54.5995 84.8854C54.5872 84.852 54.575 84.8173 54.564 84.7775C54.553 84.7377 54.542 84.7068 54.5263 84.6374L55.4061 85.3056C54.9152 85.3378 54.363 85.3285 53.7735 85.0826C53.4624 84.9479 53.1853 84.7455 52.9623 84.4902C52.7467 84.2376 52.5879 83.9416 52.4968 83.6222C52.3275 83.026 52.358 82.4915 52.4312 82.0028C52.4705 81.7631 52.5236 81.5258 52.5903 81.2923C52.6237 81.1776 52.6584 81.0637 52.6978 80.9503C52.7371 80.8369 52.7735 80.7341 52.8323 80.594V80.5911C52.844 80.5639 52.857 80.5374 52.8713 80.5115C53.4303 79.5251 53.9529 78.4921 54.462 77.4511C54.9787 76.4131 55.4594 75.3518 55.9549 74.296C56.4505 73.2401 56.905 72.1636 57.4157 71.1095C57.9265 70.0553 58.469 69.0143 59.1215 68.0063Z" fill="#363636"/>
<path d="M54.7837 84.1725C54.9483 83.9423 55.1138 83.7142 55.286 83.4891C55.4582 83.2639 55.633 83.0409 55.8073 82.8175C55.9817 82.5941 56.1649 82.3753 56.3469 82.1557C56.5289 81.936 56.7197 81.7215 56.922 81.5171L56.6842 82.3381L56.4374 83.1505C56.3528 83.4193 56.2707 83.6909 56.181 83.9575C56.0913 84.2241 56.0033 84.492 55.911 84.7565L54.7837 84.1725Z" fill="#363636"/>
<path d="M58.8896 85.6882L60.0656 84.1225C60.2582 83.8584 60.4613 83.599 60.6513 83.3324C60.8513 83.0706 61.037 82.7981 61.2074 82.5161C61.1849 82.8547 61.0961 83.1822 61.0114 83.5063C60.9166 83.8271 60.8202 84.1483 60.7089 84.4623C60.5976 84.7763 60.4884 85.0915 60.3665 85.4005C60.2446 85.7094 60.1219 86.0162 59.989 86.3247L58.8896 85.6882Z" fill="#363636"/>
<path d="M53.807 60.1115C45.8873 60.1115 38.811 58.5999 33.3445 55.7393C31.9653 55.0222 30.6527 54.1838 29.4221 53.2341H29.3527V53.1787C28.7877 52.7376 28.2452 52.2684 27.7273 51.7729C26.1865 50.3011 24.9344 48.6486 24.0034 46.8641C22.6552 44.2679 21.9722 41.3684 21.9722 38.2458C21.9722 35.4156 22.5464 32.582 23.6784 29.8246C23.9429 27.5306 24.168 25.6776 24.3868 23.998C25.1777 17.9703 26.2987 10.9148 28.6185 4.28831C28.8841 3.51981 29.3253 2.82386 29.907 2.25579C30.4888 1.68771 31.195 1.26317 31.9696 1.01592C32.7339 0.765888 33.546 0.697665 34.3414 0.816676C35.1367 0.935686 35.8932 1.23865 36.5509 1.70146C40.3789 4.37887 44.3495 8.31987 46.6647 11.7421L46.7129 11.8136C49.1993 11.2765 51.736 11.007 54.2797 11.0096C56.592 11.0088 58.8989 11.2356 61.1668 11.6866C63.4892 8.27882 67.4365 4.36575 71.243 1.70442C71.901 1.24141 72.6581 0.938415 73.4538 0.819548C74.2496 0.70068 75.0622 0.769227 75.8268 1.01973C76.601 1.26682 77.3069 1.69124 77.8882 2.2592C78.4696 2.82716 78.9103 3.52298 79.1753 4.29127C80.0217 6.71436 80.7445 9.27116 81.3801 12.1073C82.6944 17.947 83.4629 24.1588 84.1375 30.0227L84.151 30.1386C84.4138 30.8458 84.6398 31.5495 84.8243 32.2321C85.3633 34.1922 85.6374 36.2158 85.6393 38.2487C85.6393 43.6895 83.6292 48.3118 79.6645 51.9874C79.2413 52.3818 78.7843 52.7729 78.2647 53.1825V53.2371H78.194C76.3232 54.6945 74.1095 55.9521 71.6141 56.9754C67.5301 58.6469 62.8041 59.6638 57.5673 59.9977C56.3587 60.0722 55.0943 60.1115 53.807 60.1115ZM29.5626 53.075C30.7806 54.014 32.0796 54.8429 33.4444 55.5518C38.8809 58.3964 45.9229 59.8999 53.8087 59.8999C55.0913 59.8999 56.3515 59.8606 57.5542 59.7831C62.7702 59.4505 67.4738 58.4391 71.5362 56.7786C74.0092 55.763 76.2021 54.5193 78.0556 53.0771L78.0979 53.0454C78.6294 52.6281 79.0958 52.2308 79.5244 51.8304C83.4447 48.1958 85.4319 43.6256 85.4319 38.2466C85.4301 36.2326 85.1585 34.2278 84.6245 32.2858C84.4261 31.5516 84.1789 30.7937 83.8899 30.0324L83.7536 29.6736L83.9022 29.7916C83.2353 24.0077 82.471 17.8954 81.1774 12.1513C80.5426 9.32321 79.8232 6.77445 78.9803 4.3594C78.7256 3.62172 78.3022 2.95366 77.7439 2.4084C77.1856 1.86315 76.5077 1.45574 75.7641 1.21862C75.0306 0.978374 74.251 0.912686 73.4876 1.02678C72.7241 1.14087 71.9978 1.43159 71.3665 1.8758C67.558 4.54179 63.6085 8.45952 61.3048 11.8627L61.2654 11.9211L61.1964 11.9071C58.9201 11.4498 56.604 11.2201 54.2822 11.2211C51.6098 11.2194 48.9457 11.5193 46.3405 12.1153L45.8856 12.2148L46.4358 11.778C44.1244 8.39266 40.2071 4.51598 36.429 1.87327C35.7981 1.42932 35.0722 1.13871 34.3093 1.02455C33.5463 0.910387 32.7672 0.975825 32.0339 1.21566C31.2905 1.45306 30.6127 1.86061 30.0544 2.40591C29.4961 2.95122 29.0727 3.61923 28.8178 4.35686C26.506 10.9647 25.3872 18.0067 24.5979 24.0238C24.3792 25.7068 24.1536 27.5615 23.8883 29.8636L23.8811 29.8915C22.7559 32.6277 22.185 35.4384 22.185 38.2458C22.185 41.3349 22.8621 44.2011 24.1934 46.7663C25.1121 48.5327 26.3516 50.1665 27.875 51.6222C28.4005 52.1242 28.9513 52.5989 29.5254 53.0445L29.5626 53.075Z" fill="#363636"/>
<path d="M73.0465 55.9953C73.0465 55.9953 72.4875 56.3275 71.5751 56.8742C67.4852 58.5483 62.7114 59.5605 57.5614 59.8885C56.3305 59.9681 55.0797 60.0071 53.8091 60.0057C46.035 60.0057 38.9134 58.5327 33.3957 55.647C32.0838 51.643 35.5962 48.7916 41.2929 46.972C43.4443 46.2839 45.1286 44.5663 45.6694 42.373C47.9041 33.3171 58.6646 33.3171 60.8998 42.373C61.4406 44.5663 63.1244 46.2839 65.2758 46.972C71.1355 48.8437 74.6867 51.8059 73.0465 55.9953Z" fill="white"/>
<g opacity="0.6">
<path d="M71.0889 1.78724C70.7503 2.02507 70.4118 2.27136 70.0732 2.52399C72.765 1.23162 76.0891 2.54345 77.1178 5.48366C79.8726 13.3585 81.03 22.0961 82.074 31.191L82.0257 31.1541C83.0329 33.7888 83.5754 36.5678 83.5754 39.406C83.5754 45.0291 81.3749 49.5994 77.6341 53.0673C77.1787 53.4921 76.7007 53.8989 76.1999 54.2877H76.1978C75.9951 54.4468 75.7882 54.6038 75.5766 54.7561C76.3958 54.2591 77.1853 53.7148 77.9413 53.1261C77.9416 53.1264 77.9421 53.1265 77.9426 53.1265C77.943 53.1265 77.9435 53.1264 77.9438 53.1261C78.4427 52.7359 78.9222 52.3305 79.3779 51.9052C83.1179 48.4378 85.3193 43.8675 85.3193 38.2444C85.3193 35.4066 84.7764 32.6276 83.7696 29.9925L83.8175 30.0298C82.7735 20.9345 81.617 12.1973 78.8613 4.32247C77.736 1.11186 73.8742 -0.158925 71.0889 1.78724Z" fill="white"/>
</g>
<g opacity="0.6">
<path d="M29.6909 2.4042C30.4783 2.08161 31.3343 1.96241 32.1799 2.05759C33.0254 2.15277 33.8335 2.45926 34.5295 2.94882C38.0689 5.42311 41.5072 8.7924 43.7919 11.8109C44.0496 12.1468 44.3945 12.4056 44.789 12.5593C45.1835 12.7129 45.6126 12.7556 46.0296 12.6826H46.0436H46.0461C46.1769 12.4406 46.3207 12.1812 46.46 11.9307C46.3402 11.9569 46.2179 11.9831 46.0982 12.0115L46.3618 11.7999C44.1389 8.51777 40.2681 4.58142 36.2729 1.78721C34.1393 0.296374 31.3726 0.693311 29.6909 2.4042Z" fill="white"/>
</g>
<path d="M69.1899 14.583C70.5322 12.1248 72.2694 9.794 73.5203 8.24096C74.1851 7.41239 75.5126 7.71538 75.7546 8.75088C76.3648 11.3597 77.2234 15.7624 77.3479 20.3348V20.3369" fill="#FF5253"/>
<path d="M77.3463 20.337H77.2405C77.1199 15.8827 76.3095 11.5909 75.6502 8.77511C75.6013 8.56094 75.4926 8.36503 75.3368 8.21013C75.181 8.05523 74.9845 7.94769 74.77 7.89999C74.5567 7.84882 74.3332 7.85999 74.1261 7.93216C73.919 8.00432 73.737 8.13446 73.6016 8.30708C72.3744 9.8305 70.6293 12.1656 69.2815 14.6339L69.0957 14.5324C70.4499 12.0505 72.2048 9.70524 73.437 8.17463C73.5991 7.97301 73.8145 7.821 74.0588 7.73593C74.3031 7.65087 74.5664 7.63617 74.8186 7.69353C75.0708 7.75089 75.3019 7.87798 75.4854 8.06032C75.6688 8.24265 75.7974 8.47289 75.8563 8.72475C76.5173 11.5503 77.3306 15.8573 77.4521 20.3298L77.3463 20.337Z" fill="#363636"/>
<g opacity="0.6">
<path d="M68.0259 15.8702L73.7675 19.7063C74.2672 20.0403 74.8349 20.2592 75.4295 20.347C76.0241 20.4349 76.6308 20.3894 77.2058 20.2141L69.1879 14.5859C70.5302 12.1251 72.2674 9.79429 73.5183 8.24124C73.5224 8.23502 73.5277 8.22969 73.5339 8.22559C73.0498 7.63949 72.0909 7.57644 71.5568 8.24124C70.5197 9.5298 68.8756 11.6876 67.579 13.789C67.3691 14.1262 67.2984 14.5317 67.3818 14.9199C67.4652 15.3082 67.6961 15.6489 68.0259 15.8702Z" fill="white"/>
</g>
<g opacity="0.3">
<path d="M73.0366 8.84906C73.0817 8.93911 73.1161 9.03412 73.139 9.13216C73.6468 11.2963 74.3239 14.6986 74.6104 18.406L77.3479 20.3369V20.3348C77.2235 15.7645 76.3649 11.3597 75.7547 8.75088C75.5126 7.71538 74.1851 7.41239 73.5203 8.24096C73.3657 8.4328 73.2045 8.6355 73.0366 8.84906Z" fill="#363636"/>
</g>
<path d="M30.0127 20.3369V20.3348C30.1367 15.7645 30.9957 11.3597 31.6059 8.75088C31.8476 7.71538 33.1751 7.41239 33.8399 8.24096C35.0908 9.79485 36.8279 12.1248 38.1706 14.583" fill="#FF5253"/>
<path d="M30.1188 20.3376L29.9072 20.3347C30.0287 15.86 30.8424 11.5526 31.503 8.72663C31.5619 8.47466 31.6904 8.24433 31.8739 8.06191C32.0574 7.87949 32.2885 7.75235 32.5408 7.69498C32.7932 7.63762 33.0565 7.65235 33.3009 7.73749C33.5452 7.82264 33.7607 7.97476 33.9227 8.17651C35.155 9.70754 36.9086 12.0532 38.2636 14.5342L38.0783 14.6358C36.7305 12.1683 34.9849 9.83365 33.7577 8.30896C33.6226 8.13608 33.4405 8.00576 33.2334 7.93357C33.0262 7.86138 32.8026 7.85038 32.5893 7.90186C32.3748 7.94957 32.1783 8.05711 32.0225 8.21201C31.8667 8.3669 31.758 8.56281 31.7091 8.77698C31.0506 11.5911 30.2398 15.8837 30.1188 20.3376Z" fill="#363636"/>
<g opacity="0.6">
<path d="M30.0119 20.611L30.0297 19.7879C30.204 15.414 31.0191 11.2555 31.6052 8.75117C31.6456 8.57069 31.7246 8.40107 31.8366 8.25394C31.1765 8.0559 30.4025 8.41983 30.2239 9.18492C29.6768 11.5238 28.9303 15.304 28.692 19.3559C28.6806 19.5293 28.7074 19.7031 28.7706 19.8651C28.8338 20.027 28.9319 20.173 29.0578 20.2928C29.1838 20.4125 29.3345 20.5031 29.4994 20.5581C29.6643 20.6131 29.8393 20.6312 30.0119 20.611V20.611Z" fill="white"/>
</g>
<g opacity="0.3">
<path d="M31.3735 9.77285C31.4521 9.83484 31.5231 9.90586 31.5851 9.98443C32.8166 11.5142 34.5211 13.7985 35.8528 16.2156L38.1671 14.583C36.8248 12.1248 35.0877 9.79485 33.8364 8.24096C33.1716 7.41239 31.8445 7.71538 31.6025 8.75088C31.5305 9.06699 31.4552 9.4068 31.3735 9.77285Z" fill="#363636"/>
</g>
<path d="M49.6943 40.5728C49.6943 41.4492 50.9055 42.1568 52.395 42.153C53.8846 42.1492 55.0906 41.4361 55.0885 40.5597C55.0864 39.6833 53.8787 39.611 52.3891 39.6144C50.8995 39.6177 49.6897 39.6969 49.6943 40.5728Z" fill="#363636"/>
<path d="M46.6058 41.4682C46.8076 42.097 47.0802 42.6814 47.5 43.0517C47.9041 43.4326 48.4182 43.5853 48.9426 43.557C49.4669 43.5286 50.0005 43.3213 50.4406 43.0043C50.6617 42.8465 50.8609 42.6601 51.033 42.45L51.1557 42.2904L51.2899 42.0924C51.4087 41.9222 51.5667 41.7831 51.7507 41.6869C51.9346 41.5908 52.1389 41.5403 52.3465 41.5398C52.5541 41.5393 52.7587 41.5888 52.943 41.6841C53.1274 41.7794 53.2861 41.9177 53.4057 42.0873L53.5407 42.2845L53.6639 42.444C53.8372 42.6528 54.0372 42.8377 54.2589 42.9942C54.7028 43.3086 55.2347 43.5189 55.7607 43.5401C56.2867 43.5612 56.7992 43.4131 57.1995 43.0272C57.6176 42.6544 57.8867 42.0687 58.0848 41.4386L58.0869 41.4322C58.1023 41.3826 58.1348 41.3401 58.1786 41.3121C58.2224 41.2841 58.2746 41.2724 58.3262 41.2792C58.3777 41.286 58.4251 41.3108 58.4602 41.3491C58.4952 41.3875 58.5156 41.437 58.5177 41.4889C58.5477 42.2007 58.4098 42.9772 57.9388 43.6522C57.6927 43.9924 57.3749 44.2744 57.0078 44.4782C56.6336 44.6796 56.221 44.7993 55.7971 44.8295C54.9563 44.8976 54.1374 44.6467 53.4468 44.2176C53.1002 43.9989 52.7867 43.7317 52.5158 43.4241C52.4492 43.3454 52.3844 43.2651 52.3212 43.1833L52.2319 43.0564L52.1896 42.9925C52.1756 42.9717 52.1536 42.9404 52.1663 42.9612C52.1861 42.9923 52.2134 43.0179 52.2457 43.0356C52.2781 43.0534 52.3143 43.0627 52.3512 43.0627C52.3881 43.0627 52.4244 43.0534 52.4567 43.0356C52.489 43.0179 52.5163 42.9923 52.5361 42.9612C52.5484 42.9404 52.5268 42.9722 52.5129 42.9929L52.4705 43.0568L52.3817 43.1838L52.1891 43.4258C51.9184 43.735 51.6049 44.0039 51.2581 44.2243C50.5696 44.6564 49.7521 44.9128 48.9104 44.8477C48.4861 44.8197 48.0727 44.7022 47.6972 44.5028C47.3291 44.3005 47.01 44.0198 46.7624 43.6806C46.2888 43.0073 46.1467 42.2316 46.1742 41.5194C46.176 41.4675 46.1961 41.4179 46.2309 41.3794C46.2657 41.3409 46.313 41.3159 46.3644 41.3088C46.4159 41.3017 46.4682 41.313 46.5121 41.3407C46.556 41.3684 46.5887 41.4107 46.6045 41.4602L46.6058 41.4682Z" fill="#363636"/>
<path d="M66.4278 42.6585C69.2491 42.6516 71.5292 39.7448 71.5205 36.166C71.5117 32.5872 69.2175 29.6916 66.3961 29.6985C63.5748 29.7053 61.2947 32.6121 61.3034 36.191C61.3122 39.7698 63.6064 42.6654 66.4278 42.6585Z" fill="white"/>
<path d="M66.418 43.3209C63.2417 43.3209 60.6514 40.1264 60.6421 36.193C60.6328 32.2596 63.2133 29.0452 66.3947 29.0376H66.4061C69.5829 29.0376 72.1727 32.2317 72.182 36.1651C72.1867 38.044 71.6091 39.8183 70.5562 41.1585C69.4665 42.5478 68.0011 43.3167 66.4294 43.3167L66.418 43.3209ZM66.4066 30.3609H66.3981C63.9462 30.3668 61.9578 32.982 61.9654 36.1901C61.973 39.3981 63.9699 41.9977 66.418 41.9977H66.426C67.5838 41.9947 68.6807 41.4052 69.5152 40.3443C70.3857 39.2344 70.863 37.7516 70.8592 36.1685C70.8512 32.9638 68.8546 30.3604 66.4066 30.3604V30.3609Z" fill="#363636"/>
<path d="M65.589 42.0955C67.8494 42.09 69.6761 39.7171 69.669 36.7954C69.6618 33.8738 67.8236 31.5099 65.5631 31.5154C63.3027 31.5209 61.476 33.8938 61.4831 36.8154C61.4903 39.7371 63.3285 42.101 65.589 42.0955Z" fill="#363636"/>
<path d="M66.5332 36.409C67.0627 36.4077 67.4905 35.7782 67.4886 35.003C67.4867 34.2278 67.0559 33.6004 66.5263 33.6017C65.9967 33.603 65.5689 34.2324 65.5708 35.0077C65.5727 35.7829 66.0036 36.4103 66.5332 36.409Z" fill="white"/>
<path d="M43.7607 36.1919C43.7695 32.6131 41.4894 29.7063 38.668 29.6994C35.8467 29.6925 33.5524 32.5881 33.5437 36.167C33.5349 39.7458 35.815 42.6526 38.6364 42.6595C41.4577 42.6663 43.752 39.7707 43.7607 36.1919Z" fill="white"/>
<path d="M38.6464 43.3207H38.635C37.0637 43.3169 35.5979 42.5497 34.5086 41.1625C33.4553 39.8194 32.8777 38.0454 32.8824 36.1666C32.8921 32.2336 35.4823 29.0391 38.6582 29.0391H38.6701C41.8515 29.0467 44.432 32.2552 44.4227 36.1945C44.4134 40.1338 41.8244 43.3207 38.6464 43.3207ZM34.2056 36.1691C34.2018 37.7518 34.6791 39.2346 35.5496 40.345C36.3837 41.408 37.4805 41.9953 38.6388 41.9983H38.6468C41.0953 41.9983 43.0901 39.3954 43.0999 36.1907C43.1096 32.986 41.119 30.3674 38.6671 30.3615H38.6587C36.2106 30.3615 34.2153 32.9644 34.206 36.1691H34.2056Z" fill="#363636"/>
<path d="M43.5811 36.8159C43.5882 33.8943 41.7615 31.5213 39.5011 31.5158C37.2406 31.5103 35.4024 33.8743 35.3953 36.7959C35.3881 39.7175 37.2148 42.0904 39.4752 42.0959C41.7357 42.1015 43.5739 39.7375 43.5811 36.8159Z" fill="#363636"/>
<path d="M39.493 35.0087C39.4949 34.2335 39.0671 33.604 38.5375 33.6027C38.008 33.6014 37.5771 34.2288 37.5752 35.0041C37.5733 35.7793 38.0011 36.4088 38.5307 36.4101C39.0603 36.4114 39.4911 35.784 39.493 35.0087Z" fill="white"/>
<path d="M55.7989 44.2046C55.7989 45.122 55.5284 45.855 55.0926 46.4081C53.785 48.0711 50.9929 48.0711 49.6853 46.4081C49.2494 45.8579 48.979 45.122 48.979 44.2046C50.3018 43.9389 51.4613 43.4526 52.3898 42.6592C53.3512 43.5212 54.4472 44.1195 55.7989 44.2046Z" fill="#363636"/>
<path d="M55.0933 46.4077C53.7857 48.0708 50.9936 48.0708 49.686 46.4077C50.9915 44.7404 53.7878 44.7404 55.0933 46.4077Z" fill="#F42C4F"/>
<path d="M52.3898 48.4173C51.3077 48.4173 50.2942 48.0416 49.5355 47.3594C48.9341 46.8182 48.2173 45.8322 48.2173 44.2051H49.7428C49.7428 46.0607 51.0724 46.8914 52.3898 46.8914C53.7071 46.8914 55.0367 46.0607 55.0367 44.2051H56.5601C56.5622 46.9705 54.4633 48.4173 52.3898 48.4173Z" fill="#363636"/>
<path d="M77.3481 21.1001C77.1606 21.0999 76.9798 21.0306 76.8403 20.9054C74.2792 18.6135 71.5853 16.7135 68.8343 15.2573C68.7449 15.2101 68.6659 15.1457 68.6017 15.0677C68.5375 14.9896 68.4895 14.8996 68.4604 14.8029C68.4314 14.7061 68.4218 14.6045 68.4324 14.504C68.443 14.4036 68.4734 14.3062 68.522 14.2176C69.8994 11.6921 71.678 9.31344 72.9281 7.76294C73.1675 7.46538 73.4858 7.24113 73.8465 7.11578C74.2073 6.99042 74.5961 6.96902 74.9684 7.054C75.3408 7.13898 75.6818 7.32693 75.9524 7.59639C76.2231 7.86586 76.4126 8.20599 76.4992 8.57797C77.167 11.4327 77.9892 15.7867 78.1119 20.3147C78.1119 20.3218 78.1119 20.3307 78.1119 20.3375C78.1119 20.5395 78.0317 20.7333 77.8888 20.8761C77.746 21.019 77.5522 21.0992 77.3502 21.0992L77.3481 21.1001ZM70.2346 14.2828C72.375 15.4744 74.4756 16.9225 76.5034 18.6033C76.2555 14.8549 75.5771 11.3413 75.0118 8.92455C74.9901 8.83116 74.9427 8.74573 74.8748 8.678C74.807 8.61027 74.7214 8.56297 74.628 8.54148C74.5346 8.52 74.437 8.5252 74.3464 8.55649C74.2558 8.58778 74.1758 8.64391 74.1155 8.71846C73.0165 10.0836 71.4969 12.106 70.2346 14.2828Z" fill="#363636"/>
<path d="M53.591 60.8777C44.4264 60.8777 36.5063 58.9197 30.6872 55.2149C24.3435 51.1757 20.9902 45.3071 20.9902 38.2456C20.9902 35.3478 21.5696 32.4516 22.7125 29.6345C23.7485 20.637 24.9215 11.9133 27.6776 4.03597C27.9809 3.16047 28.4828 2.36711 29.144 1.71807C29.8052 1.06903 30.6078 0.581938 31.4887 0.294989C32.3697 0.00803959 33.3052 -0.0709761 34.2218 0.0641375C35.1384 0.199251 36.0113 0.544822 36.772 1.07376C40.5383 3.70674 44.4463 7.55042 46.8435 10.9616C51.3795 10.048 56.1063 10.0052 60.6093 10.8376C63.0108 7.45774 66.8697 3.67543 70.5907 1.07419C71.3514 0.545158 72.2243 0.199515 73.1409 0.0643544C74.0575 -0.0708061 74.993 0.00819075 75.874 0.295149C76.7551 0.582108 77.5576 1.06923 78.2188 1.71832C78.88 2.36742 79.3819 3.16084 79.6851 4.03639C82.4712 12.0001 83.6401 20.83 84.6849 29.9324C84.6849 29.9379 84.6849 29.9434 84.6849 29.9489C85.684 32.6547 86.1905 35.4451 86.1905 38.2465C86.1905 45.3097 82.8377 51.1782 76.4944 55.2157C70.6753 58.9197 62.7561 60.8777 53.591 60.8777ZM24.2046 30.5985C23.2284 33.1083 22.7337 35.6766 22.7337 38.244C22.7337 44.6812 25.808 50.0411 31.6237 53.7439C37.0826 57.2198 44.8847 59.1343 53.591 59.1343C62.2974 59.1343 70.0985 57.2198 75.5579 53.7439C81.3727 50.0411 84.4445 44.6812 84.4445 38.244C84.4445 35.5818 83.9494 32.9272 82.9736 30.3539C82.9214 30.2168 82.9048 30.0688 82.9253 29.9235C81.8979 20.9946 80.7417 12.3445 78.0356 4.60979C77.8197 3.98381 77.4607 3.41685 76.9871 2.95403C76.5136 2.49121 75.9385 2.14529 75.3078 1.9438C74.6865 1.74029 74.0263 1.68473 73.3798 1.78157C72.7332 1.8784 72.1183 2.12494 71.5839 2.50154C67.8481 5.11294 63.9752 8.9545 61.7176 12.2887C61.6212 12.4305 61.4851 12.5408 61.3264 12.6059C61.1677 12.671 60.9934 12.688 60.8251 12.6547C56.1702 11.7157 51.2403 11.7661 46.5481 12.8037C46.4317 12.8295 46.3111 12.8311 46.1939 12.8084C46.0768 12.7857 45.9656 12.7392 45.8671 12.6718C45.7687 12.6043 45.6852 12.5174 45.6217 12.4163C45.5583 12.3153 45.5162 12.2022 45.4983 12.0843C43.2224 8.79877 39.4312 5.05962 35.7712 2.50112C35.2371 2.12492 34.6226 1.8786 33.9765 1.78177C33.3305 1.68495 32.6707 1.74028 32.0498 1.94338C31.4189 2.14469 30.8438 2.49054 30.3701 2.95338C29.8965 3.41623 29.5375 3.98328 29.3217 4.60937C26.6176 12.3378 25.4615 20.9802 24.4349 29.9003C24.4329 29.9319 24.4292 29.9634 24.4239 29.9946C24.4188 30.0395 24.4137 30.0835 24.4086 30.1279C24.3897 30.3018 24.3186 30.4658 24.2046 30.5985V30.5985Z" fill="#363636"/>
<path d="M30.0121 21.1001C29.9049 21.1002 29.7988 21.0777 29.7009 21.034C29.6029 20.9903 29.5153 20.9264 29.4438 20.8465C29.3722 20.7666 29.3184 20.6725 29.2857 20.5704C29.253 20.4682 29.2423 20.3603 29.2542 20.2537C29.2965 19.8852 30.2495 11.2004 30.8623 8.57671C30.9491 8.20465 31.1387 7.86448 31.4096 7.59502C31.6804 7.32557 32.0215 7.1377 32.3941 7.05284C32.7666 6.96799 33.1554 6.98958 33.5163 7.11514C33.8771 7.2407 34.1953 7.46518 34.4347 7.76296C35.6831 9.31388 37.4617 11.6934 38.8399 14.2172C38.9345 14.3899 38.9586 14.5926 38.907 14.7827C38.8554 14.9727 38.7321 15.1354 38.5632 15.2366C36.0203 16.7647 33.3789 18.6279 30.4882 20.9333C30.3529 21.0412 30.1851 21.1 30.0121 21.1001V21.1001ZM32.8529 8.5272C32.8126 8.52737 32.7724 8.53191 32.7331 8.54075C32.6386 8.56063 32.5519 8.60745 32.4834 8.67556C32.4149 8.74367 32.3676 8.83016 32.3472 8.92456C31.9202 10.7501 31.2952 15.862 30.9748 18.6152C33.136 16.9543 35.1698 15.5371 37.1434 14.317C35.8777 12.1288 34.3505 10.0929 33.2443 8.72102C33.1987 8.66045 33.1395 8.61138 33.0716 8.57773C33.0036 8.54408 32.9287 8.52678 32.8529 8.5272Z" fill="#363636"/>
<g opacity="0.2">
<path d="M56.7381 14.3066C60.6143 14.9244 63.7526 16.0805 65.9916 17.8926C66.7855 18.5349 66.4731 19.8188 65.4762 20.0402C60.9956 21.035 57.5332 19.9648 55.4542 16.0911C54.9764 15.2008 55.7402 14.1475 56.7381 14.3066Z" fill="white"/>
</g>
<g opacity="0.2">
<path d="M70.8753 24.1399C71.5998 23.594 71.5786 22.3435 70.8279 21.3469C70.0772 20.3503 68.8813 19.9843 68.1564 20.5298C67.4315 21.0752 67.9025 21.9889 68.6515 22.9842C69.4005 23.9795 70.1504 24.6832 70.8753 24.1399Z" fill="white"/>
</g>
<g opacity="0.3">
<path d="M39.2394 43.5527C38.4974 43.8122 37.7171 43.9454 36.931 43.9466C35.9928 43.9468 35.0604 43.7985 34.1685 43.5074L29.0977 30.4512C30.071 29.1521 31.5025 28.2888 33.1178 27.7891L39.2394 43.5527Z" fill="white"/>
</g>
<g opacity="0.3">
<path d="M72.1095 43.1286C70.9358 43.6659 69.6604 43.9449 68.3696 43.9466C68.026 43.9465 67.683 43.9205 67.3434 43.8687L61.8125 29.6256C62.8861 28.5499 64.3477 27.8191 66.0294 27.4746L72.1095 43.1286Z" fill="white"/>
</g>
<g opacity="0.3">
<path d="M76.5834 38.8551C75.9977 40 75.1824 41.012 74.1883 41.8279L68.5254 27.2437C69.8131 27.2568 71.1101 27.4404 72.3014 27.8251L76.5834 38.8551Z" fill="white"/>
</g>
<g opacity="0.3">
<path d="M44.368 38.8551C43.782 39.9999 42.9665 41.0119 41.9724 41.8279L36.3091 27.2437C37.5964 27.2568 38.8934 27.4404 40.0846 27.8251L44.368 38.8551Z" fill="white"/>
</g>
<path d="M84.492 28.0899C83.3655 28.2013 82.2288 28.0396 81.1781 27.6185C80.8163 27.4746 80.485 27.2643 80.1705 27.0354C72.2691 21.2146 62.6381 23.5493 55.8403 28.3265C53.714 26.4363 51.5875 26.4363 49.4609 28.3265C42.6631 23.5493 33.0325 21.2146 25.1306 27.0354C24.8167 27.2643 24.4849 27.4746 24.1235 27.6185C23.0735 28.0396 21.9375 28.2013 20.8117 28.0899C20.7452 28.0827 20.6779 28.0895 20.6142 28.11C20.5504 28.1305 20.4917 28.1641 20.4419 28.2088C20.392 28.2535 20.3521 28.3081 20.3248 28.3692C20.2975 28.4303 20.2833 28.4965 20.2832 28.5634V30.2185C20.2842 30.3295 20.3239 30.4367 20.3954 30.5217C20.467 30.6066 20.5658 30.664 20.6751 30.684C22.4101 31.0174 23.3453 32.3995 23.6652 34.5869C28.1584 54.8991 49.7301 49.2286 49.8058 32.2387C49.8077 31.8509 49.9444 31.4758 50.1925 31.1776C50.4405 30.8795 50.7845 30.6768 51.1655 30.6044C52.1764 30.4076 53.1705 30.3928 54.1438 30.5744C54.5244 30.6466 54.8679 30.8494 55.115 31.1477C55.3622 31.446 55.4976 31.8212 55.4979 32.2086C55.5491 49.2202 77.1432 54.9102 81.6385 34.5869C81.9568 32.3995 82.892 31.0174 84.6266 30.684C84.7359 30.6643 84.835 30.607 84.9066 30.522C84.9781 30.437 85.0177 30.3296 85.0184 30.2185V28.5634C85.0186 28.4966 85.0047 28.4305 84.9776 28.3694C84.9505 28.3083 84.9108 28.2536 84.8611 28.2089C84.8115 28.1642 84.7529 28.1305 84.6893 28.11C84.6256 28.0895 84.5584 28.0826 84.492 28.0899V28.0899ZM36.9312 43.9466C32.2069 43.9466 28.1453 40.1804 27.7907 35.5809C27.3252 29.5194 32.2082 27.2415 36.9312 27.2415C41.6543 27.2415 45.4124 29.8736 45.4124 34.4883C45.4124 39.103 41.6576 43.9466 36.9312 43.9466ZM77.5134 35.5809C77.1576 40.1804 73.0959 43.9466 68.3729 43.9466C63.6499 43.9466 59.8917 39.0992 59.8917 34.4883C59.8917 29.8774 63.6486 27.2415 68.3729 27.2415C73.0972 27.2415 77.9781 29.5194 77.5122 35.5809H77.5134Z" fill="#F42C4F"/>
<path d="M36.5121 47.6653C33.8885 47.6653 31.3532 46.7457 29.2636 45.0171C26.5413 42.7645 24.5698 39.1659 23.5618 34.61C23.2304 32.3482 22.2804 31.1006 20.655 30.7883C20.5217 30.7634 20.4012 30.693 20.3141 30.5891C20.2269 30.4853 20.1786 30.3543 20.1772 30.2187V28.5637C20.1773 28.482 20.1946 28.4011 20.2279 28.3265C20.2613 28.2518 20.31 28.185 20.3709 28.1304C20.4317 28.0758 20.5034 28.0346 20.5812 28.0095C20.6591 27.9845 20.7413 27.976 20.8226 27.9848C21.9314 28.0928 23.05 27.9332 24.0844 27.5193C24.3874 27.3991 24.7001 27.2176 25.0683 26.9493C33.1818 20.9733 42.9685 23.6638 49.4536 28.1918C51.5754 26.3433 53.7276 26.3438 55.8477 28.1918C62.3316 23.6638 72.1195 20.9729 80.2334 26.9497C80.6012 27.2176 80.9139 27.3991 81.2169 27.5193C82.2519 27.9331 83.371 28.0927 84.4804 27.9848V27.9848C84.5616 27.9761 84.6437 27.9845 84.7214 28.0097C84.7991 28.0348 84.8706 28.076 84.9313 28.1306C84.992 28.1853 85.0405 28.2521 85.0736 28.3267C85.1068 28.4013 85.1238 28.4821 85.1236 28.5637V30.2187C85.1224 30.3544 85.074 30.4853 84.9869 30.5892C84.8997 30.6931 84.7792 30.7635 84.6459 30.7883C83.0205 31.1006 82.0709 32.3482 81.7429 34.6024C80.7332 39.168 78.7604 42.7696 76.0364 45.0192C73.6273 47.0111 70.6236 47.9272 67.5806 47.6006C64.3767 47.2552 61.3777 45.615 59.1366 42.982C56.6991 40.118 55.4042 36.3933 55.392 32.2102C55.3908 31.8474 55.2636 31.4964 55.0319 31.2172C54.8003 30.938 54.4788 30.7481 54.1224 30.68C53.1847 30.5027 52.1953 30.5107 51.1839 30.7101C50.8275 30.7789 50.5059 30.969 50.2737 31.2479C50.0414 31.5269 49.9128 31.8777 49.9098 32.2407C49.8916 36.4182 48.5928 40.1366 46.1549 42.9947C43.9121 45.6231 40.9152 47.2595 37.7135 47.6018C37.3144 47.6442 36.9134 47.6654 36.5121 47.6653ZM20.7604 28.1934C20.6685 28.1933 20.5798 28.2272 20.5116 28.2887C20.4727 28.3231 20.4416 28.3655 20.4204 28.4129C20.3993 28.4604 20.3885 28.5118 20.3888 28.5637V30.2187C20.3901 30.3052 20.4213 30.3886 20.4772 30.4545C20.5331 30.5205 20.6101 30.5651 20.6952 30.5806C22.3955 30.9072 23.4297 32.25 23.77 34.5715C26.0492 44.8757 32.4564 47.9522 37.6924 47.3902C43.6286 46.7555 49.6592 41.3465 49.6994 32.2407C49.7028 31.8287 49.8486 31.4306 50.1121 31.1139C50.3756 30.7971 50.7405 30.5814 51.145 30.5031C52.1835 30.3008 53.1991 30.2915 54.1631 30.4727C54.567 30.551 54.9312 30.7671 55.1936 31.0841C55.456 31.401 55.6003 31.7992 55.6018 32.2106C55.6289 41.3308 61.6591 46.7508 67.6017 47.3911C72.8393 47.9547 79.2513 44.8829 81.533 34.566C81.8715 32.2525 82.9032 30.9094 84.6044 30.5827C84.6895 30.5673 84.7665 30.5227 84.8223 30.4567C84.8782 30.3907 84.9093 30.3073 84.9103 30.2209V28.5658C84.9106 28.5139 84.8999 28.4624 84.8788 28.4149C84.8578 28.3673 84.8269 28.3248 84.7883 28.29C84.7496 28.2552 84.7041 28.229 84.6546 28.2131C84.6051 28.1972 84.5528 28.1919 84.5011 28.1977C83.3577 28.309 82.2043 28.1449 81.1373 27.7191C80.817 27.5921 80.4895 27.4025 80.1065 27.1232C72.0548 21.1916 62.3223 23.9021 55.901 28.4156L55.8325 28.4639L55.7699 28.4084C53.6709 26.5426 51.63 26.5431 49.5314 28.4084L49.4688 28.4639L49.3986 28.4139C42.9752 23.8999 33.2431 21.1904 25.1931 27.1211C24.8097 27.4008 24.4822 27.59 24.1618 27.7174C23.0955 28.1434 21.9426 28.3075 20.7997 28.196C20.7867 28.1943 20.7735 28.1935 20.7604 28.1934V28.1934ZM68.3698 44.0527C63.4551 44.0527 59.7828 39.0034 59.7828 34.489C59.7828 30.0914 63.2338 27.1368 68.3698 27.1368C71.5182 27.1368 74.2481 28.1346 75.86 29.8747C77.2061 31.3283 77.7977 33.2508 77.6182 35.5875C77.2564 40.256 73.1076 44.0527 68.3698 44.0527ZM68.3698 27.3479C63.3603 27.3479 59.9944 30.2175 59.9944 34.4886C59.9944 38.9035 63.5761 43.8407 68.3698 43.8407C72.9997 43.8407 77.0537 40.1316 77.4067 35.5723C77.5814 33.2948 77.0089 31.4252 75.7042 30.0169C74.1326 28.3208 71.4594 27.3479 68.3698 27.3479ZM36.9315 44.0527C32.192 44.0527 28.0449 40.256 27.6839 35.5892C27.5041 33.2504 28.0952 31.3279 29.4418 29.8764C31.0532 28.1363 33.7831 27.1385 36.9319 27.1385C42.068 27.1385 45.5189 30.0931 45.5189 34.4907C45.5185 39.0034 41.8458 44.0527 36.9315 44.0527V44.0527ZM36.9315 27.3479C33.8423 27.3479 31.1683 28.3212 29.5971 30.0177C28.2924 31.4265 27.7199 33.2956 27.8946 35.5731C28.2476 40.132 32.3016 43.8411 36.9315 43.8411C41.7248 43.8411 45.3069 38.9035 45.3069 34.489C45.3069 30.2175 41.941 27.3479 36.9315 27.3479V27.3479Z" fill="#363636"/>
<g opacity="0.55">
<path d="M84.492 28.0899C83.3655 28.2013 82.2288 28.0396 81.1781 27.6185C80.8163 27.4746 80.485 27.2643 80.1706 27.0354C72.2691 21.2146 62.6381 23.5493 55.8403 28.3265C53.714 26.4363 51.5875 26.4363 49.4609 28.3265C42.6631 23.5493 33.0325 21.2146 25.1306 27.0354C24.8167 27.2643 24.4849 27.4746 24.1235 27.6185C23.0735 28.0396 21.9375 28.2013 20.8117 28.0899C20.7452 28.0827 20.6779 28.0895 20.6142 28.11C20.5504 28.1305 20.4917 28.1641 20.4419 28.2088C20.392 28.2535 20.3521 28.3081 20.3248 28.3692C20.2975 28.4303 20.2833 28.4965 20.2832 28.5634V30.1715C20.2832 30.1046 20.2973 30.0384 20.3247 29.9773C20.352 29.9161 20.3919 29.8615 20.4418 29.8168C20.4916 29.7722 20.5504 29.7386 20.6141 29.7182C20.6779 29.6977 20.7452 29.691 20.8117 29.6984C21.9375 29.8096 23.0736 29.6477 24.1235 29.2266C24.4849 29.0827 24.8167 28.8728 25.1306 28.6434C33.0325 22.8227 42.6631 25.1573 49.4631 29.9349C51.5896 28.0448 53.7161 28.0448 55.8424 29.9349C62.6402 25.1573 72.2712 22.8227 80.1748 28.6434C80.4892 28.8728 80.8205 29.0827 81.1824 29.2266C82.2331 29.6477 83.3697 29.8095 84.4962 29.6984C84.5626 29.6911 84.6298 29.6979 84.6933 29.7184C84.7569 29.7389 84.8154 29.7726 84.8651 29.8172C84.9147 29.8619 84.9544 29.9165 84.9815 29.9776C85.0086 30.0386 85.0224 30.1047 85.0222 30.1715V28.5634C85.0225 28.4962 85.0085 28.4298 84.9812 28.3684C84.9539 28.307 84.9138 28.2521 84.8637 28.2073C84.8136 28.1626 84.7545 28.129 84.6904 28.1087C84.6264 28.0885 84.5587 28.0821 84.492 28.0899V28.0899ZM77.5096 35.6186C77.1347 40.2011 73.0824 43.9466 68.3691 43.9466C63.9233 43.9466 60.3331 39.6518 59.9277 35.3025C59.901 35.5667 59.8877 35.832 59.8879 36.0976C59.8879 40.7102 63.6448 45.5559 68.3691 45.5559C73.0934 45.5559 77.1555 41.7897 77.5096 37.1902C77.5529 36.6672 77.5525 36.1415 77.5084 35.6186H77.5096ZM45.3739 35.3025C44.969 39.6518 41.3805 43.9466 36.9325 43.9466C32.2213 43.9466 28.1694 40.2011 27.7945 35.6186C27.7495 36.1414 27.7483 36.6671 27.7907 37.1902C28.1466 41.7897 32.2082 45.5559 36.9312 45.5559C41.6543 45.5559 45.4124 40.7085 45.4124 36.0976C45.4129 35.832 45.3996 35.5666 45.3727 35.3025H45.3739Z" fill="white"/>
</g>
<path d="M36.5111 48.2859C33.7444 48.2859 31.0704 47.3168 28.8678 45.4951C26.038 43.1541 23.9941 39.4365 22.956 34.744C22.9522 34.727 22.9493 34.7097 22.9467 34.6923C22.5659 32.0814 21.3899 31.5609 20.5389 31.3984C20.2639 31.346 20.0156 31.1997 19.8365 30.9845C19.6574 30.7693 19.5587 30.4985 19.5571 30.2186V28.5635C19.5571 28.3947 19.5925 28.2277 19.6612 28.0735C19.7299 27.9193 19.8304 27.7813 19.9559 27.6684C20.0815 27.5556 20.2295 27.4704 20.3901 27.4185C20.5508 27.3666 20.7206 27.3492 20.8884 27.3672C21.8974 27.4652 22.9152 27.3201 23.8566 26.944C24.1105 26.8438 24.3783 26.6863 24.7029 26.4494C32.9163 20.398 42.7609 22.9303 49.4204 27.4176C51.5435 25.7719 53.7592 25.7719 55.8822 27.4176C62.5417 22.9319 72.386 20.3988 80.6023 26.4515C80.9247 26.6863 81.1947 26.8438 81.4486 26.9445C82.3897 27.3201 83.4069 27.4652 84.4155 27.3676V27.3676C84.5833 27.3496 84.7531 27.3671 84.9138 27.419C85.0745 27.4709 85.2224 27.556 85.348 27.6688C85.4735 27.7817 85.574 27.9197 85.6427 28.0739C85.7114 28.2282 85.7469 28.3951 85.7468 28.5639V30.219C85.7453 30.4988 85.6467 30.7694 85.4678 30.9846C85.2889 31.1997 85.0407 31.346 84.7659 31.3984C83.9144 31.5621 82.7393 32.0818 82.3572 34.6928C82.3546 34.7101 82.3517 34.7274 82.3479 34.7444C81.3094 39.4386 79.2638 43.1575 76.4319 45.4985C73.8929 47.5978 70.725 48.5631 67.514 48.2173C64.151 47.8551 61.0081 46.1383 58.6637 43.3834C56.1302 40.4064 54.7841 36.5433 54.7706 32.2117C54.7702 31.9935 54.6941 31.7822 54.5551 31.614C54.4162 31.4458 54.2231 31.3311 54.0089 31.2896C53.149 31.1271 52.2387 31.1364 51.3039 31.318C51.0885 31.3594 50.8941 31.4741 50.7536 31.6425C50.6131 31.811 50.5351 32.0228 50.5329 32.2422C50.5135 36.5682 49.1635 40.425 46.6292 43.3966C44.2835 46.1472 41.141 47.8585 37.7806 48.2182C37.3589 48.2632 36.9352 48.2858 36.5111 48.2859V48.2859ZM52.7609 29.7201C53.2709 29.7193 53.7798 29.7663 54.281 29.8605C54.8272 29.9652 55.3201 30.2565 55.6752 30.6846C56.0304 31.1126 56.2256 31.6508 56.2275 32.207C56.2534 40.9616 62.0043 46.1603 67.6718 46.7714C72.6403 47.3088 78.7264 44.3508 80.9243 34.457C81.298 31.9493 82.4312 30.456 84.2949 30.0137V28.8369C83.1416 28.906 81.9873 28.7206 80.9137 28.294C80.5435 28.1467 80.1728 27.9334 79.7462 27.6228C71.9569 21.8846 62.5083 24.5337 56.2601 28.9215C56.1262 29.0156 55.9643 29.0617 55.8009 29.0524C55.6374 29.043 55.482 28.9787 55.3596 28.8699C53.5125 27.2288 51.7927 27.2288 49.946 28.8699C49.8236 28.9788 49.668 29.0432 49.5045 29.0525C49.341 29.0619 49.1791 29.0157 49.045 28.9215C42.7986 24.5315 33.35 21.8846 25.5636 27.6207C25.1345 27.9334 24.7638 28.1467 24.394 28.294C23.3201 28.7202 22.1658 28.9055 21.0124 28.8369V30.012C22.8744 30.453 24.0093 31.9468 24.3826 34.4554C26.5792 44.3453 32.6607 47.3029 37.6279 46.7697C43.2899 46.1641 49.0417 40.9764 49.0802 32.2328C49.0847 31.6775 49.2809 31.1408 49.6356 30.7135C49.9903 30.2863 50.4818 29.9947 51.0268 29.8881C51.5976 29.7769 52.1777 29.7206 52.7592 29.7201H52.7609ZM68.373 44.6737C63.1024 44.6737 59.1644 39.2964 59.1644 34.4888C59.1644 29.7192 62.865 26.5149 68.373 26.5149C71.6936 26.5149 74.5894 27.5856 76.3181 29.4522C77.7869 31.0378 78.4339 33.1185 78.2397 35.6368C77.8525 40.6201 73.4261 44.6737 68.3713 44.6737H68.373ZM68.373 27.969C64.5133 27.969 60.6188 29.985 60.6188 34.4888C60.6188 38.6101 63.9348 43.2197 68.373 43.2197C72.6856 43.2197 76.4615 39.7679 76.7899 35.5247C76.9511 33.4275 76.4336 31.7162 75.2513 30.4403C73.7951 28.8699 71.2883 27.969 68.3713 27.969H68.373ZM36.9313 44.6737C31.8761 44.6737 27.4497 40.6201 27.0642 35.6373C26.8708 33.1185 27.517 31.0378 28.9858 29.4522C30.7145 27.5856 33.6103 26.5149 36.9313 26.5149C42.4389 26.5149 46.1395 29.7192 46.1395 34.4888C46.1404 39.2964 42.2049 44.6737 36.9326 44.6737H36.9313ZM36.9313 27.969C34.014 27.969 31.5071 28.8699 30.0526 30.4403C28.8703 31.7166 28.3528 33.4275 28.514 35.5251C28.8424 39.7679 32.6188 43.2197 36.9313 43.2197C41.3691 43.2197 44.6851 38.6101 44.6851 34.4888C44.6864 29.985 40.7919 27.969 36.9326 27.969H36.9313Z" fill="#363636"/>
<path d="M25.3057 90.5859H88.68C89.1158 90.5859 89.5338 90.7591 89.8419 91.0672C90.1501 91.3754 90.3232 91.7933 90.3232 92.2291V105.015C90.3232 105.451 90.1501 105.869 89.8419 106.177C89.5338 106.485 89.1158 106.658 88.68 106.658H25.3057C24.3438 106.658 23.4212 106.276 22.741 105.596C22.0608 104.916 21.6787 103.993 21.6787 103.031V94.2129C21.6787 93.251 22.0608 92.3285 22.741 91.6483C23.4212 90.9681 24.3438 90.5859 25.3057 90.5859V90.5859Z" fill="#6E76F1"/>
<g opacity="0.7">
<path d="M88.6805 90.5859H25.3062C24.3443 90.5859 23.4217 90.9681 22.7415 91.6483C22.0613 92.3285 21.6792 93.251 21.6792 94.2129V103.031C21.6786 103.624 21.824 104.207 22.1024 104.73C22.1024 104.728 22.1024 104.726 22.1024 104.724V95.9056C22.1024 94.9437 22.4845 94.0212 23.1647 93.341C23.8449 92.6608 24.7674 92.2786 25.7294 92.2786H30.4444C30.8405 92.9921 33.1696 93.5397 35.9837 93.5397C38.7978 93.5397 41.1269 92.9921 41.523 92.2786H89.1037C89.3339 92.2786 89.5616 92.3271 89.7718 92.421C89.982 92.5149 90.1701 92.6522 90.3237 92.8237V92.2312C90.324 92.0153 90.2817 91.8013 90.1993 91.6017C90.1169 91.4021 89.9959 91.2207 89.8433 91.0678C89.6906 90.915 89.5094 90.7938 89.3099 90.7111C89.1103 90.6284 88.8965 90.5859 88.6805 90.5859V90.5859Z" fill="white"/>
</g>
<path d="M28.8871 90.5625H26.3032V106.658H28.8871V90.5625Z" fill="white"/>
<path d="M33.9613 90.5625H31.3774V106.658H33.9613V90.5625Z" fill="white"/>
<g opacity="0.3">
<path d="M88.6805 102.426H25.3062C24.3443 102.426 23.4217 102.044 22.7415 101.364C22.0613 100.684 21.6792 99.7613 21.6792 98.7993V103.031C21.6792 103.993 22.0613 104.916 22.7415 105.596C23.4217 106.276 24.3443 106.658 25.3062 106.658H88.6805C88.8963 106.658 89.11 106.616 89.3094 106.533C89.5088 106.451 89.6899 106.329 89.8425 106.177C89.9951 106.024 90.1162 105.843 90.1987 105.644C90.2813 105.444 90.3237 105.231 90.3237 105.015V100.783C90.3237 100.999 90.2813 101.213 90.1987 101.412C90.1162 101.611 89.9951 101.793 89.8425 101.945C89.6899 102.098 89.5088 102.219 89.3094 102.301C89.11 102.384 88.8963 102.426 88.6805 102.426V102.426Z" fill="#363636"/>
</g>
<path d="M88.6792 107.505H25.3053C24.1193 107.503 22.9821 107.032 22.1434 106.193C21.3047 105.354 20.8329 104.217 20.8315 103.031V94.2131C20.8329 93.027 21.3047 91.8899 22.1434 91.0513C22.9821 90.2127 24.1193 89.741 25.3053 89.7397H88.6792C89.3392 89.7405 89.972 90.0031 90.4387 90.4698C90.9054 90.9365 91.1679 91.5693 91.1687 92.2293V105.015C91.1679 105.675 90.9054 106.308 90.4387 106.774C89.972 107.241 89.3392 107.504 88.6792 107.505V107.505ZM25.3053 91.4324C24.568 91.4332 23.8612 91.7264 23.3398 92.2477C22.8184 92.769 22.5251 93.4758 22.5242 94.2131V103.031C22.5251 103.768 22.8184 104.475 23.3398 104.997C23.8612 105.518 24.568 105.811 25.3053 105.812H88.6792C88.8904 105.811 89.0929 105.727 89.2423 105.578C89.3916 105.429 89.4757 105.226 89.476 105.015V92.228C89.4757 92.0168 89.3916 91.8143 89.2423 91.6649C89.0929 91.5156 88.8904 91.4315 88.6792 91.4312L25.3053 91.4324Z" fill="#363636"/>
<path d="M55.3085 94.2593H90.3222V103.101H55.3085C54.9408 103.101 54.5768 103.028 54.2371 102.887C53.8974 102.747 53.5888 102.541 53.3288 102.281C53.0688 102.021 52.8626 101.712 52.7219 101.372C52.5812 101.033 52.5088 100.669 52.5088 100.301V97.059C52.5088 96.6913 52.5812 96.3273 52.7219 95.9876C52.8626 95.6479 53.0688 95.3393 53.3288 95.0793C53.5888 94.8193 53.8974 94.6131 54.2371 94.4724C54.5768 94.3317 54.9408 94.2593 55.3085 94.2593Z" fill="white"/>
<g opacity="0.3">
<path d="M57.847 101.194C57.4794 101.194 57.1153 101.122 56.7756 100.981C56.436 100.841 56.1273 100.634 55.8674 100.374C55.6074 100.114 55.4011 99.8058 55.2605 99.4661C55.1198 99.1265 55.0473 98.7624 55.0473 98.3947V95.1528C55.0478 94.8506 55.0974 94.5505 55.1942 94.2642C54.4725 94.2929 53.7899 94.5997 53.2893 95.1202C52.7887 95.6408 52.5088 96.3349 52.5083 97.0571V100.299C52.5083 100.667 52.5807 101.031 52.7214 101.37C52.8621 101.71 53.0683 102.019 53.3283 102.279C53.5883 102.539 53.8969 102.745 54.2366 102.886C54.5763 103.026 54.9403 103.099 55.308 103.099H90.3217V101.194H57.847Z" fill="#363636"/>
</g>
<path d="M90.3225 103.875H55.3088C54.3608 103.874 53.452 103.497 52.7817 102.826C52.1114 102.156 51.7344 101.247 51.7334 100.299V97.0577C51.7344 96.1098 52.1114 95.2009 52.7817 94.5305C53.452 93.8602 54.3608 93.4831 55.3088 93.4819H90.3225C90.5282 93.4819 90.7256 93.5636 90.8711 93.7091C91.0167 93.8546 91.0985 94.0519 91.0986 94.2576V103.099C91.0986 103.305 91.0168 103.502 90.8713 103.648C90.7257 103.793 90.5283 103.875 90.3225 103.875V103.875ZM55.3088 95.0337C54.7722 95.0343 54.2577 95.2477 53.8783 95.6272C53.499 96.0066 53.2856 96.5211 53.2852 97.0577V100.299C53.2857 100.836 53.4991 101.35 53.8785 101.73C54.2578 102.109 54.7722 102.323 55.3088 102.323H89.5468V95.0337H55.3088Z" fill="#363636"/>
<g opacity="0.4">
<path d="M81.8276 96.8745C82.5356 96.7856 83.2436 96.7437 83.9515 96.7137L86.0754 96.6435C86.7834 96.6172 87.4914 96.6062 88.1989 96.5884C88.9065 96.5707 89.6149 96.5626 90.3228 96.5571V97.1919C89.6149 97.1864 88.9069 97.1779 88.1989 97.1606C87.4909 97.1432 86.7834 97.1314 86.0754 97.1051L83.9515 97.0353C83.2436 97.0048 82.5356 96.9634 81.8276 96.8745Z" fill="#363636"/>
<path d="M52.5752 96.5572C56.5729 96.5314 60.5706 96.5526 64.5683 96.5759L70.5651 96.6376C72.5637 96.6639 74.5628 96.6376 76.5614 96.8746C74.5628 97.1099 72.5637 97.0862 70.5651 97.1112L64.5683 97.173C60.5706 97.1967 56.5729 97.2178 52.5752 97.192V96.5572Z" fill="#363636"/>
<path d="M69.5684 98.7845C71.2983 98.5505 73.0278 98.5585 74.7573 98.5374L79.9458 98.4773L85.1343 98.451C86.8638 98.4485 88.5933 98.451 90.3228 98.4671V99.1019C88.5932 99.118 86.8637 99.1232 85.1343 99.1175L79.9458 99.0917L74.7573 99.0312C73.0278 99.0105 71.2983 99.0185 69.5684 98.7845Z" fill="#363636"/>
<path d="M52.5752 98.4667C53.6599 98.4577 54.7445 98.4577 55.829 98.4667L59.0823 98.5023L62.3357 98.5658C63.4203 98.5827 64.5049 98.6047 65.5894 98.7841C64.5049 98.9631 63.4203 98.9855 62.3357 99.0025L59.0823 99.066L55.829 99.1015C54.7442 99.1091 53.6596 99.1091 52.5752 99.1015V98.4667Z" fill="#363636"/>
<path d="M79.9453 100.694C80.8099 100.567 81.6748 100.512 82.5394 100.479L85.1338 100.413C85.9984 100.387 86.8633 100.385 87.7283 100.374C88.1605 100.368 88.5928 100.366 89.0253 100.368C89.4578 100.368 89.8899 100.368 90.3223 100.376V101.011C89.8899 101.019 89.4578 101.018 89.0253 101.019C88.5928 101.02 88.1604 101.019 87.7283 101.013C86.8633 101.003 85.9984 101 85.1338 100.974L82.5394 100.909C81.6748 100.876 80.8099 100.821 79.9453 100.694Z" fill="#363636"/>
<path d="M52.5752 100.377L57.9203 100.406L63.265 100.457L68.6096 100.527C70.3912 100.548 72.1732 100.569 73.9543 100.696C72.1732 100.823 70.3912 100.842 68.6096 100.865L63.265 100.935L57.9203 100.986L52.5752 101.015V100.377Z" fill="#363636"/>
</g>
<path d="M86.6957 122.73L23.3215 122.73C22.8857 122.73 22.4677 122.557 22.1596 122.249C21.8514 121.941 21.6783 121.523 21.6783 121.087V108.3C21.6783 107.864 21.8514 107.447 22.1596 107.138C22.4677 106.83 22.8857 106.657 23.3215 106.657H86.6957C87.6577 106.657 88.5802 107.039 89.2604 107.719C89.9406 108.4 90.3228 109.322 90.3228 110.284V119.103C90.3228 120.065 89.9406 120.988 89.2604 121.668C88.5802 122.348 87.6577 122.73 86.6957 122.73Z" fill="#F42C4F"/>
<path d="M83.1143 122.73H85.6982V106.635H83.1143V122.73Z" fill="#FFBC1F"/>
<path d="M78.0401 122.73H80.624V106.635H78.0401V122.73Z" fill="#FFBC1F"/>
<g opacity="0.3">
<path d="M23.3224 118.499H86.6967C87.173 118.499 87.6446 118.405 88.0847 118.222C88.5247 118.04 88.9245 117.773 89.2613 117.436C89.5981 117.099 89.8653 116.7 90.0476 116.26C90.2299 115.82 90.3237 115.348 90.3237 114.872V119.103C90.3237 119.58 90.2299 120.051 90.0476 120.491C89.8653 120.931 89.5981 121.331 89.2613 121.668C88.9245 122.005 88.5247 122.272 88.0847 122.454C87.6446 122.636 87.173 122.73 86.6967 122.73H23.3224C23.1066 122.73 22.8929 122.688 22.6935 122.605C22.4941 122.523 22.3129 122.402 22.1604 122.249C22.0078 122.097 21.8867 121.915 21.8042 121.716C21.7216 121.517 21.6791 121.303 21.6792 121.087V116.857C21.6794 117.292 21.8527 117.71 22.1608 118.018C22.4689 118.326 22.8868 118.499 23.3224 118.499V118.499Z" fill="#363636"/>
</g>
<g opacity="0.7">
<path d="M23.3224 106.658H86.6967C87.173 106.658 87.6446 106.752 88.0847 106.934C88.5247 107.117 88.9245 107.384 89.2613 107.721C89.5981 108.057 89.8653 108.457 90.0476 108.897C90.2299 109.337 90.3237 109.809 90.3237 110.285V119.103C90.3243 119.696 90.1789 120.279 89.9005 120.802C89.9005 120.802 89.9005 120.798 89.9005 120.796V111.978C89.9005 111.016 89.5184 110.093 88.8382 109.413C88.158 108.733 87.2354 108.351 86.2735 108.351H81.5585C81.1624 109.064 78.8333 109.612 76.0192 109.612C73.2051 109.612 70.8759 109.064 70.4798 108.351H22.8992C22.669 108.351 22.4413 108.399 22.2311 108.493C22.0208 108.587 21.8328 108.724 21.6792 108.896V108.301C21.6791 108.086 21.7216 107.872 21.8042 107.672C21.8867 107.473 22.0078 107.292 22.1604 107.139C22.3129 106.987 22.4941 106.866 22.6935 106.783C22.8929 106.701 23.1066 106.658 23.3224 106.658V106.658Z" fill="white"/>
</g>
<path d="M86.6954 123.577H23.3211C22.661 123.576 22.0283 123.313 21.5616 122.847C21.0949 122.38 20.8323 121.747 20.8315 121.087V108.302C20.8323 107.642 21.0949 107.009 21.5616 106.542C22.0283 106.075 22.661 105.813 23.3211 105.812H86.6954C87.8814 105.813 89.0184 106.285 89.857 107.124C90.6956 107.962 91.1674 109.099 91.1687 110.285V119.103C91.1674 120.289 90.6956 121.426 89.857 122.265C89.0184 123.104 87.8814 123.575 86.6954 123.577V123.577ZM23.3211 107.505C23.1098 107.505 22.9073 107.589 22.7579 107.738C22.6085 107.888 22.5245 108.09 22.5242 108.302V121.089C22.5245 121.3 22.6085 121.502 22.7579 121.652C22.9073 121.801 23.1098 121.885 23.3211 121.885H86.6954C87.4326 121.884 88.1393 121.591 88.6606 121.07C89.1819 120.549 89.4751 119.842 89.476 119.105V110.285C89.4751 109.548 89.1819 108.841 88.6606 108.32C88.1393 107.799 87.4326 107.506 86.6954 107.505H23.3211Z" fill="#363636"/>
<path d="M56.691 119.171H21.6773V110.33H56.691C57.0587 110.33 57.4227 110.402 57.7624 110.543C58.1021 110.684 58.4107 110.89 58.6707 111.15C58.9307 111.41 59.1369 111.719 59.2776 112.058C59.4183 112.398 59.4907 112.762 59.4907 113.13V116.372C59.4907 116.739 59.4183 117.103 59.2776 117.443C59.1369 117.783 58.9307 118.091 58.6707 118.351C58.4107 118.611 58.1021 118.818 57.7624 118.958C57.4227 119.099 57.0587 119.171 56.691 119.171Z" fill="white"/>
<g opacity="0.3">
<path d="M54.1539 117.267C54.8964 117.267 55.6085 116.972 56.1336 116.447C56.6586 115.922 56.9536 115.21 56.9536 114.467V111.226C56.9531 110.923 56.9035 110.623 56.8067 110.337C57.5284 110.366 58.2109 110.673 58.7115 111.193C59.2121 111.714 59.492 112.408 59.4926 113.13V116.371C59.4926 117.114 59.1976 117.826 58.6726 118.351C58.1475 118.876 57.4354 119.171 56.6929 119.171H21.6792V117.267H54.1539Z" fill="#363636"/>
</g>
<path d="M56.6912 119.946H21.6775C21.4716 119.946 21.2742 119.864 21.1287 119.718C20.9831 119.573 20.9014 119.375 20.9014 119.169V110.329C20.9015 110.124 20.9833 109.926 21.1288 109.781C21.2744 109.635 21.4717 109.554 21.6775 109.554H56.6912C57.6392 109.555 58.5482 109.932 59.2185 110.602C59.8889 111.273 60.266 112.181 60.267 113.13V116.371C60.2655 117.319 59.8883 118.227 59.218 118.897C58.5476 119.568 57.639 119.944 56.6912 119.946V119.946ZM22.4531 118.394H56.6912C57.2278 118.393 57.7422 118.18 58.1216 117.8C58.5011 117.421 58.7145 116.906 58.7152 116.37V113.128C58.7146 112.592 58.5012 112.077 58.1218 111.698C57.7423 111.318 57.2278 111.105 56.6912 111.104H22.4531V118.394Z" fill="#363636"/>
<g opacity="0.4">
<path d="M30.1744 112.946C29.4664 113.035 28.7584 113.077 28.0505 113.107L25.9266 113.177C25.2186 113.203 24.5106 113.215 23.8031 113.232C23.0956 113.25 22.3872 113.258 21.6792 113.264V112.629C22.3872 112.634 23.0951 112.642 23.8031 112.66C24.5111 112.678 25.2186 112.689 25.9266 112.715L28.0505 112.785C28.7584 112.816 29.4685 112.857 30.1744 112.946Z" fill="#363636"/>
<path d="M59.4257 113.264C55.428 113.29 51.4303 113.268 47.4326 113.245L41.4358 113.183C39.4372 113.157 37.4381 113.183 35.4395 112.946C37.4381 112.711 39.4372 112.735 41.4358 112.709L47.4326 112.648C51.4303 112.624 55.428 112.603 59.4257 112.629V113.264Z" fill="#363636"/>
<path d="M42.4337 114.856C40.7038 115.09 38.9742 115.082 37.2447 115.103L32.0562 115.164L26.8677 115.19C25.1384 115.193 23.4088 115.187 21.6792 115.174V114.539C23.4087 114.523 25.1382 114.521 26.8677 114.523L32.0562 114.549L37.2447 114.61C38.9742 114.63 40.7038 114.622 42.4337 114.856Z" fill="#363636"/>
<path d="M59.4268 115.174C58.3424 115.183 57.2578 115.183 56.1731 115.174L52.9197 115.138L49.6664 115.075C48.5818 115.058 47.4972 115.035 46.4126 114.856C47.4972 114.677 48.5818 114.654 49.6664 114.638L52.9197 114.574L56.1731 114.539C57.2578 114.531 58.3424 114.531 59.4268 114.539V115.174Z" fill="#363636"/>
<path d="M32.0562 116.766C31.1917 116.893 30.3267 116.948 29.4622 116.981L26.8677 117.047C26.0032 117.073 25.1382 117.075 24.2732 117.086C23.841 117.092 23.4087 117.094 22.9762 117.092C22.5437 117.092 22.1117 117.092 21.6792 117.084V116.449C22.1117 116.441 22.5437 116.442 22.9762 116.441C23.4087 116.44 23.8412 116.441 24.2732 116.447C25.1382 116.457 26.0032 116.46 26.8677 116.486L29.4622 116.551C30.3267 116.585 31.1917 116.639 32.0562 116.766Z" fill="#363636"/>
<path d="M59.4264 117.083L54.0814 117.055L48.7367 117.003L43.392 116.934C41.6105 116.912 39.8285 116.891 38.0474 116.764C39.8285 116.637 41.6105 116.618 43.392 116.595L48.7367 116.526L54.0814 116.475L59.4264 116.445V117.083Z" fill="#363636"/>
</g>
<path d="M11.1432 122.413C12.0741 122.155 13.0051 122.018 13.9361 121.914C14.8671 121.809 15.7981 121.772 16.729 121.742C18.591 121.673 20.453 121.709 22.3149 121.747C24.1769 121.784 26.0388 121.777 27.9008 121.778H89.364H92.157C93.0879 121.778 94.0189 121.736 94.9499 121.715C95.8818 121.694 96.8142 121.725 97.7428 121.806C98.6738 121.901 99.6048 122.057 100.536 122.414C100.601 122.438 100.656 122.481 100.696 122.538C100.735 122.595 100.756 122.662 100.756 122.731C100.756 122.8 100.735 122.868 100.696 122.925C100.656 122.981 100.601 123.025 100.536 123.049C99.6048 123.405 98.6738 123.562 97.7428 123.656C96.8142 123.738 95.8818 123.768 94.9499 123.747C94.0189 123.727 93.0879 123.684 92.157 123.684H89.364H27.9046C26.0426 123.684 24.1807 123.676 22.3187 123.716C20.4568 123.756 18.5948 123.789 16.7328 123.721C15.8019 123.69 14.8709 123.655 13.9399 123.549C13.0089 123.443 12.078 123.307 11.147 123.05C11.0775 123.03 11.0162 122.989 10.9726 122.932C10.9289 122.874 10.9053 122.804 10.9053 122.732C10.9053 122.66 10.9289 122.59 10.9726 122.533C11.0162 122.475 11.0775 122.434 11.147 122.415L11.1432 122.413Z" fill="#363636"/>
</svg>
